<?xml version="1.0" encoding="UTF-8" standalone="no"?>
<!-- Created with Inkscape (http://www.inkscape.org/) -->

<svg
   xmlns:dc="http://purl.org/dc/elements/1.1/"
   xmlns:cc="http://creativecommons.org/ns#"
   xmlns:rdf="http://www.w3.org/1999/02/22-rdf-syntax-ns#"
   xmlns:svg="http://www.w3.org/2000/svg"
   xmlns="http://www.w3.org/2000/svg"
   xmlns:sodipodi="http://sodipodi.sourceforge.net/DTD/sodipodi-0.dtd"
   xmlns:inkscape="http://www.inkscape.org/namespaces/inkscape"
   id="svg2"
   version="1.1"
   inkscape:version="0.91 r13725"
   xml:space="preserve"
   width="539.88751"
   height="319.91251"
   viewBox="0 0 539.88751 319.91251"
   sodipodi:docname="original.svg"><metadata
     id="metadata8"><rdf:RDF><cc:Work
         rdf:about=""><dc:format>image/svg+xml</dc:format><dc:type
           rdf:resource="http://purl.org/dc/dcmitype/StillImage" /><dc:title /></cc:Work></rdf:RDF></metadata><defs
     id="defs6" /><sodipodi:namedview
     pagecolor="#ffffff"
     bordercolor="#666666"
     borderopacity="1"
     objecttolerance="10"
     gridtolerance="10"
     guidetolerance="10"
     inkscape:pageopacity="0"
     inkscape:pageshadow="2"
     inkscape:window-width="1920"
     inkscape:window-height="1017"
     id="namedview4"
     showgrid="false"
     showborder="false"
     inkscape:zoom="1.39"
     inkscape:cx="133.97254"
     inkscape:cy="206.16557"
     inkscape:window-x="0"
     inkscape:window-y="30"
     inkscape:window-maximized="1"
     inkscape:current-layer="g10" /><g
     id="g10"
     inkscape:groupmode="layer"
     inkscape:label="ink_ext_XXXXXX"
     transform="matrix(1.25,0,0,-1.25,0,319.9125)"><g
       id="g4148"
       style="fill:#ffffff;fill-opacity:1"><path
         d="m 4.50039,29.034 0,-12.575 6.35431,0 c 4.3234,0 7.1039,2.1609 7.1039,6.2648 0,4.1043 -2.8238,6.3102 -7.1039,6.3102 l -6.35431,0 z M 22.5465,22.7238 c 0,-6.575 -4.8527,-10.2367 -11.2953,-10.2367 l -6.75081,0 0,-11.912881 -4.50039,0 0,32.430881 11.2512,0 c 6.3984,0 11.2953,-3.6192 11.2953,-10.2813"
         style="fill:#ffffff;fill-opacity:1;fill-rule:nonzero;stroke:none"
         id="path14"
         inkscape:connector-curvature="0" /><path
         d="m 42.698,29.034 0,-12.1789 5.868,0 c 4.4121,0 7.2805,2.073 7.2805,6.089 0,3.9707 -2.9125,6.0899 -7.2805,6.0899 l -5.868,0 z m 17.693,-6.0899 c 0,-4.7203 -2.6476,-7.898 -6.5746,-9.3089 l 8.1184,-13.060981 -5.2946,0 -7.589,12.309781 -6.3532,0 0,-12.309781 -4.5003,0 0,32.430881 10.7652,0 c 6.4426,0 11.4281,-3.5742 11.4281,-10.061"
         style="fill:#ffffff;fill-opacity:1;fill-rule:nonzero;stroke:none"
         id="path16"
         inkscape:connector-curvature="0" /><path
         d="m 79.5715,16.766 c 0,-7.32381 4.8969,-12.61717 11.7805,-12.61717 6.8835,0 11.78,5.29336 11.78,12.61717 0,7.325 -4.8965,12.6649 -11.78,12.6649 -6.8836,0 -11.7805,-5.3399 -11.7805,-12.6649 z m 28.1495,0 C 107.721,7.06094 100.75,0 91.352,0 81.909,0 75.0266,7.06094 75.0266,16.766 c 0,9.6641 6.8824,16.8129 16.3254,16.8129 9.398,0 16.369,-7.1488 16.369,-16.8129"
         style="fill:#ffffff;fill-opacity:1;fill-rule:nonzero;stroke:none"
         id="path18"
         inkscape:connector-curvature="0" /><path
         d="m 128.266,29.034 0,-12.575 6.355,0 c 4.324,0 7.104,2.1609 7.104,6.2648 0,4.1043 -2.824,6.3102 -7.104,6.3102 l -6.355,0 z m 18.048,-6.3102 c 0,-6.575 -4.855,-10.2367 -11.297,-10.2367 l -6.751,0 0,-11.912881 -4.5,0 0,32.430881 11.251,0 c 6.398,0 11.297,-3.6192 11.297,-10.2813"
         style="fill:#ffffff;fill-opacity:1;fill-rule:nonzero;stroke:none"
         id="path20"
         inkscape:connector-curvature="0" /><path
         d="m 182.128,28.857 -15.574,0 0,-9.8398 13.676,0 0,-4.016 -13.676,0 0,-10.27932 15.926,0 0,-4.147661 -20.427,0 0,32.430881 20.075,0 0,-4.1481"
         style="fill:#ffffff;fill-opacity:1;fill-rule:nonzero;stroke:none"
         id="path22"
         inkscape:connector-curvature="0" /><path
         d="m 203.03,4.58906 15.442,0 0,-4.014841 -19.942,0 0,32.430881 4.5,0 0,-28.41604"
         style="fill:#ffffff;fill-opacity:1;fill-rule:nonzero;stroke:none"
         id="path24"
         inkscape:connector-curvature="0" /><path
         d="m 259.487,4.58906 15.442,0 0,-4.014841 -19.942,0 0,32.430881 4.5,0 0,-28.41604"
         style="fill:#ffffff;fill-opacity:1;fill-rule:nonzero;stroke:none"
         id="path26"
         inkscape:connector-curvature="0" /><path
         d="m 310.084,28.857 -15.575,0 0,-9.8398 13.677,0 0,-4.016 -13.677,0 0,-10.27932 15.927,0 0,-4.147661 -20.427,0 0,32.430881 20.075,0 0,-4.1481"
         style="fill:#ffffff;fill-opacity:1;fill-rule:nonzero;stroke:none"
         id="path28"
         inkscape:connector-curvature="0" /><path
         d="m 352.119,28.857 -2.868,-3.2648 c -2.073,2.2508 -4.985,3.8387 -8.602,3.8387 -7.016,0 -11.783,-5.3399 -11.783,-12.6649 0,-7.28006 4.944,-12.61717 12.224,-12.61717 2.912,0 5.382,0.88125 7.324,2.29414 l 0,7.28003 -8.252,0 0,3.927 12.752,0 0,-13.41289 C 349.914,1.45586 345.854,0 341.09,0 c -9.796,0 -16.768,7.14805 -16.768,16.766 0,9.6641 6.795,16.8129 16.327,16.8129 4.853,0 8.471,-1.6769 11.47,-4.7219"
         style="fill:#ffffff;fill-opacity:1;fill-rule:nonzero;stroke:none"
         id="path30"
         inkscape:connector-curvature="0" /><path
         d="m 382.021,33.5789 -0.177,0 -14.915,-33.004681 4.811,0 10.192,23.075781 10.193,-23.075781 4.808,0 -14.912,33.004681"
         style="fill:#ffffff;fill-opacity:1;fill-rule:nonzero;stroke:none"
         id="path32"
         inkscape:connector-curvature="0" /><path
         d="m 416.467,4.58906 15.441,0 0,-4.014841 -19.942,0 0,32.430881 4.501,0 0,-28.41604"
         style="fill:#ffffff;fill-opacity:1;fill-rule:nonzero;stroke:none"
         id="path34"
         inkscape:connector-curvature="0" /><path
         d="m 252.713,241.339 c -10.989,9.726 -26.471,14.592 -46.448,14.592 l -51.333,0 21.888,-19.734 23.967,0 0,-0.07 1.7,0 c 29.185,0 43.777,-12.334 43.777,-37.001 0,-12.596 -3.975,-22.345 -11.921,-29.25 -7.948,-6.906 -19.479,-10.358 -34.591,-10.358 l -22.931,0 0,0.077 -21.889,0 0,-49.635 21.889,0 0,29.754 24.625,0 c 20.758,0 37.238,5.646 49.443,16.937 12.202,11.29 18.306,25.797 18.306,43.516 0,17.719 -5.494,31.442 -16.482,41.172"
         style="fill:#ffffff;fill-opacity:1;fill-rule:nonzero;stroke:none"
         id="path36"
         inkscape:connector-curvature="0" /><path
         d="m 154.932,69.098 21.8891,0 0,19.5641 -21.8891,0 0,-19.5641 z"
         style="fill:#ffffff;fill-opacity:1;fill-rule:nonzero;stroke:none"
         id="path38"
         inkscape:connector-curvature="0" /><path
         d="m 154.931,207.17 0,-102.535 21.889,0 0,87.765 -21.889,14.77"
         style="fill:#ffffff;fill-opacity:1;fill-rule:nonzero;stroke:none"
         id="path40"
         inkscape:connector-curvature="0" /><path
         d="m 154.931,88.7051 0,-19.6063 96.935,0 -19.304,19.5633 -77.631,0.043"
         style="fill:#ffffff;fill-opacity:1;fill-rule:nonzero;stroke:none"
         id="path42"
         inkscape:connector-curvature="0" /></g></g></svg>