<?xml version="1.0" encoding="UTF-8" standalone="no"?>
<!-- Generator: Adobe Illustrator 19.0.0, SVG Export Plug-In . SVG Version: 6.00 Build 0)  -->

<svg
   xmlns:dc="http://purl.org/dc/elements/1.1/"
   xmlns:cc="http://creativecommons.org/ns#"
   xmlns:rdf="http://www.w3.org/1999/02/22-rdf-syntax-ns#"
   xmlns:svg="http://www.w3.org/2000/svg"
   xmlns="http://www.w3.org/2000/svg"
   xmlns:sodipodi="http://sodipodi.sourceforge.net/DTD/sodipodi-0.dtd"
   xmlns:inkscape="http://www.inkscape.org/namespaces/inkscape"
   version="1.1"
   id="Capa_1"
   x="0px"
   y="0px"
   viewBox="0 0 512 512"
   style="enable-background:new 0 0 512 512;"
   xml:space="preserve"
   inkscape:version="0.91 r13725"
   sodipodi:docname="customers.svg"><metadata
     id="metadata61"><rdf:RDF><cc:Work
         rdf:about=""><dc:format>image/svg+xml</dc:format><dc:type
           rdf:resource="http://purl.org/dc/dcmitype/StillImage" /><dc:title></dc:title></cc:Work></rdf:RDF></metadata><defs
     id="defs59" /><sodipodi:namedview
     pagecolor="#ffffff"
     bordercolor="#666666"
     borderopacity="1"
     objecttolerance="10"
     gridtolerance="10"
     guidetolerance="10"
     inkscape:pageopacity="0"
     inkscape:pageshadow="2"
     inkscape:window-width="1920"
     inkscape:window-height="1017"
     id="namedview57"
     showgrid="false"
     inkscape:zoom="0.4609375"
     inkscape:cx="-154.0339"
     inkscape:cy="256"
     inkscape:window-x="0"
     inkscape:window-y="30"
     inkscape:window-maximized="1"
     inkscape:current-layer="Capa_1" /><g
     id="g5333"
     style="fill:#009688;fill-opacity:1"><g
       style="fill:#009688;fill-opacity:1"
       id="g3"><g
         style="fill:#009688;fill-opacity:1"
         id="g5"><path
           style="fill:#009688;fill-opacity:1"
           id="path7"
           d="M334.769,157.334c-5.437,0-9.846,4.408-9.846,9.846v0.205c0,5.438,4.409,9.846,9.846,9.846s9.846-4.408,9.846-9.846    v-0.205C344.615,161.742,340.206,157.334,334.769,157.334z" /></g></g><g
       style="fill:#009688;fill-opacity:1"
       id="g9"><g
         style="fill:#009688;fill-opacity:1"
         id="g11"><path
           style="fill:#009688;fill-opacity:1"
           id="path13"
           d="M338.065,133.891c-13.68-33.485-45.892-55.122-82.065-55.122c-5.437,0-9.846,4.408-9.846,9.846    c0,5.438,4.409,9.846,9.846,9.846c28.137,0,53.194,16.83,63.834,42.876c1.559,3.815,5.237,6.125,9.12,6.125    c1.24,0,2.501-0.235,3.719-0.734C337.706,144.673,340.12,138.925,338.065,133.891z" /></g></g><g
       style="fill:#009688;fill-opacity:1"
       id="g15"><g
         style="fill:#009688;fill-opacity:1"
         id="g17"><path
           style="fill:#009688;fill-opacity:1"
           id="path19"
           d="M137.648,323.003c-0.128-0.63-0.315-1.25-0.561-1.841c-0.246-0.601-0.551-1.172-0.906-1.703    c-0.353-0.542-0.767-1.044-1.221-1.497c-0.453-0.453-0.955-0.866-1.497-1.221c-0.532-0.354-1.103-0.66-1.703-0.906    c-0.591-0.246-1.21-0.443-1.84-0.561c-1.27-0.256-2.58-0.256-3.84,0c-0.63,0.118-1.25,0.315-1.851,0.561    c-0.592,0.246-1.162,0.551-1.694,0.906c-0.543,0.354-1.045,0.768-1.498,1.221c-0.453,0.453-0.866,0.955-1.221,1.497    c-0.364,0.532-0.66,1.103-0.906,1.703c-0.246,0.591-0.443,1.211-0.56,1.841c-0.129,0.63-0.197,1.28-0.197,1.92    s0.068,1.29,0.197,1.92c0.117,0.63,0.314,1.25,0.56,1.841c0.246,0.601,0.542,1.172,0.906,1.703    c0.354,0.542,0.768,1.044,1.221,1.497c0.453,0.453,0.955,0.866,1.498,1.221c0.532,0.354,1.102,0.66,1.694,0.906    c0.601,0.246,1.221,0.433,1.851,0.561c0.63,0.128,1.28,0.197,1.92,0.197c0.639,0,1.29-0.069,1.92-0.197    c0.63-0.128,1.25-0.315,1.84-0.561c0.601-0.246,1.172-0.551,1.703-0.906c0.542-0.354,1.044-0.768,1.497-1.221    c0.454-0.453,0.867-0.955,1.221-1.497c0.354-0.532,0.66-1.103,0.906-1.703c0.246-0.591,0.433-1.211,0.561-1.841    c0.128-0.63,0.197-1.28,0.197-1.92S137.776,323.633,137.648,323.003z" /></g></g><g
       style="fill:#009688;fill-opacity:1"
       id="g21"><g
         style="fill:#009688;fill-opacity:1"
         id="g23"><path
           style="fill:#009688;fill-opacity:1"
           id="path25"
           d="M403.692,157.538c-6.721,0-13.391,0.615-19.94,1.836C379.607,92.51,323.891,39.385,256,39.385    S132.393,92.51,128.248,159.375c-6.55-1.221-13.219-1.836-19.94-1.836C48.587,157.538,0,206.125,0,265.846    c0,24.019,7.864,46.233,21.146,64.214c0.329,0.537,0.708,1.039,1.13,1.501c19.81,25.874,51.003,42.594,86.032,42.594h108.308    v88.615c0,5.438,4.409,9.846,9.846,9.846h59.077c5.437,0,9.846-4.408,9.846-9.846v-88.615H403.2c0.078,0,0.157-0.001,0.234-0.003    l0.258,0.003c59.721,0,108.308-48.587,108.308-108.308C512,206.125,463.413,157.538,403.692,157.538z M285.538,315.077    c-5.437,0-9.846,4.408-9.846,9.846v128h-39.385v-128c0-5.438-4.409-9.846-9.846-9.846h-5.767L256,279.771l35.305,35.306H285.538z     M403.701,354.462l-0.443-0.006c-0.02,0-0.038,0-0.058,0c-0.117,0-0.233,0.002-0.35,0.006H295.385v-19.692h19.692    c3.983,0,7.573-2.4,9.097-6.078c1.524-3.679,0.68-7.914-2.135-10.73l-59.077-59.077c-3.846-3.845-10.078-3.845-13.925,0    l-59.077,59.077c-2.815,2.816-3.659,7.052-2.135,10.73c1.524,3.68,5.114,6.078,9.097,6.078h19.692v19.692H108.308    c-21.052,0-40.411-7.385-55.63-19.692h45.784c5.437,0,9.846-4.408,9.846-9.846s-4.409-9.846-9.846-9.846H34.662    c-9.45-14.09-14.97-31.027-14.97-49.231c0-48.862,39.753-88.615,88.615-88.615c9.098,0,18.072,1.375,26.673,4.086    c3.056,0.964,6.385,0.381,8.93-1.561c2.546-1.942,3.99-5,3.87-8.2c-0.061-1.6-0.089-2.925-0.089-4.172    c0-59.721,48.587-108.308,108.308-108.308s108.308,48.587,108.308,108.308c0,1.247-0.028,2.572-0.089,4.172    c-0.12,3.2,1.323,6.258,3.87,8.2c2.544,1.942,5.873,2.524,8.93,1.561c8.601-2.711,17.575-4.086,26.673-4.086    c48.862,0,88.615,39.753,88.615,88.615C492.308,314.709,452.555,354.462,403.701,354.462z" /></g></g></g><g
     id="g27" /><g
     id="g29" /><g
     id="g31" /><g
     id="g33" /><g
     id="g35" /><g
     id="g37" /><g
     id="g39" /><g
     id="g41" /><g
     id="g43" /><g
     id="g45" /><g
     id="g47" /><g
     id="g49" /><g
     id="g51" /><g
     id="g53" /><g
     id="g55" /></svg>