<?xml version="1.0" encoding="UTF-8" standalone="no"?>
<svg
   xmlns:dc="http://purl.org/dc/elements/1.1/"
   xmlns:cc="http://creativecommons.org/ns#"
   xmlns:rdf="http://www.w3.org/1999/02/22-rdf-syntax-ns#"
   xmlns:svg="http://www.w3.org/2000/svg"
   xmlns="http://www.w3.org/2000/svg"
   xmlns:sodipodi="http://sodipodi.sourceforge.net/DTD/sodipodi-0.dtd"
   xmlns:inkscape="http://www.inkscape.org/namespaces/inkscape"
   version="1.1"
   id="Capa_1"
   x="0px"
   y="0px"
   viewBox="0 0 58 58"
   style="enable-background:new 0 0 58 58;"
   xml:space="preserve"
   inkscape:version="0.91 r13725"
   sodipodi:docname="incorporate.svg"><sodipodi:namedview
     pagecolor="#ffffff"
     bordercolor="#666666"
     borderopacity="1"
     objecttolerance="10"
     gridtolerance="10"
     guidetolerance="10"
     inkscape:pageopacity="0"
     inkscape:pageshadow="2"
     inkscape:window-width="1920"
     inkscape:window-height="1017"
     id="namedview26"
     showgrid="false"
     inkscape:zoom="11.508772"
     inkscape:cx="1.8021918"
     inkscape:cy="25.251706"
     inkscape:window-x="0"
     inkscape:window-y="30"
     inkscape:window-maximized="1"
     inkscape:current-layer="Capa_1" /><metadata
     id="metadata67"><rdf:RDF><cc:Work
         rdf:about=""><dc:format>image/svg+xml</dc:format><dc:type
           rdf:resource="http://purl.org/dc/dcmitype/StillImage" /><dc:title /></cc:Work></rdf:RDF></metadata><defs
     id="defs65" /><g
     id="g33" /><g
     id="g35" /><g
     id="g37" /><g
     id="g39" /><g
     id="g41" /><g
     id="g43" /><g
     id="g45" /><g
     id="g47" /><g
     id="g49" /><g
     id="g51" /><g
     id="g53" /><g
     id="g55" /><g
     id="g57" /><g
     id="g59" /><g
     id="g61" /><path
     inkscape:connector-curvature="0"
     id="path5"
     d="m 8,24.5 c -0.256,0 -0.512,-0.098 -0.707,-0.293 -0.391,-0.391 -0.391,-1.023 0,-1.414 l 17,-17 c 0.391,-0.391 1.023,-0.391 1.414,0 0.391,0.391 0.391,1.023 0,1.414 l -17,17 C 8.512,24.402 8.256,24.5 8,24.5 Z"
     style="fill:#00bcd4;fill-opacity:1" /><path
     inkscape:connector-curvature="0"
     id="path7"
     d="m 50,24.5 c -0.256,0 -0.512,-0.098 -0.707,-0.293 l -17,-17 c -0.391,-0.391 -0.391,-1.023 0,-1.414 0.391,-0.391 1.023,-0.391 1.414,0 l 17,17 c 0.391,0.391 0.391,1.023 0,1.414 C 50.512,24.402 50.256,24.5 50,24.5 Z"
     style="fill:#00bcd4;fill-opacity:1" /><path
     inkscape:connector-curvature="0"
     id="circle9"
     d="m 33,6.5 a 4,4 0 0 1 -4,4 4,4 0 0 1 -4,-4 4,4 0 0 1 4,-4 4,4 0 0 1 4,4 z"
     style="fill:#00bcd4;fill-opacity:1" /><path
     inkscape:connector-curvature="0"
     id="rect11"
     d="m 0,23.5 58,0 0,32 -58,0 z"
     style="fill:#00bcd4;fill-opacity:1" /><g
     id="text4209"
     style="font-style:normal;font-variant:normal;font-weight:500;font-stretch:normal;font-size:22.81500053px;line-height:125%;font-family:'Century Schoolbook L';-inkscape-font-specification:'Century Schoolbook L, Medium';text-align:start;letter-spacing:0px;word-spacing:0px;writing-mode:lr-tb;text-anchor:start;fill:#ffffff;fill-opacity:1;stroke:none;stroke-width:1px;stroke-linecap:butt;stroke-linejoin:miter;stroke-opacity:1"><path
       inkscape:connector-curvature="0"
       id="path4157"
       d="m 17.60599,36.853458 -4.28922,0.250965 0,0.981045 1.163565,0 c 0.844155,0 0.981045,0.159705 0.981045,1.14075 l 0,5.452785 0,0.912601 c 0,0.9126 -0.250965,1.072305 -1.711125,1.072305 l -0.159705,0 0,0.82134 5.909085,0 0,-0.82134 -0.159705,0 c -1.482975,0 -1.73394,-0.159705 -1.73394,-1.072305 l 0,-0.912601 0,-7.825545 z m -1.072305,-5.680935 c -0.73008,0 -1.32327,0.59319 -1.32327,1.32327 0,0.707265 0.59319,1.32327 1.300455,1.32327 0.752895,0 1.346085,-0.59319 1.346085,-1.32327 0,-0.73008 -0.59319,-1.32327 -1.32327,-1.32327 z" /><path
       inkscape:connector-curvature="0"
       id="path4159"
       d="m 24.643349,36.853458 -3.946995,0.250965 0,0.981045 0.82134,0 c 0.844155,0 0.981045,0.159705 0.981045,1.14075 l 0,5.452785 0,0.912601 c 0,0.9126 -0.250965,1.072305 -1.711125,1.072305 l -0.09126,0 0,0.82134 5.772195,0 0,-0.82134 -0.09126,0 c -1.482975,0 -1.73394,-0.159705 -1.73394,-1.072305 l 0,-0.912601 0,-2.37276 c 0,-1.117935 0.159705,-2.14461 0.41067,-2.669355 0.479115,-1.026675 1.50579,-1.73394 2.486835,-1.73394 0.59319,0 1.27764,0.342225 1.619865,0.798525 0.342225,0.479115 0.50193,1.18638 0.50193,2.2815 l 0,3.69603 0,0.912601 c 0,0.9126 -0.250965,1.072305 -1.73394,1.072305 l -0.09126,0 0,0.82134 5.772195,0 0,-0.82134 -0.09126,0 c -1.46016,0 -1.711125,-0.159705 -1.711125,-1.072305 l 0,-0.912601 0,-3.581955 c 0,-1.64268 -0.06844,-2.05335 -0.479115,-2.82906 -0.570375,-1.09512 -1.73394,-1.756755 -3.080025,-1.756755 -1.46016,0 -2.60091,0.68445 -3.60477,2.19024 l 0,-1.848015 z" /><path
       inkscape:connector-curvature="0"
       id="path4161"
       d="m 42.857206,44.131443 c -0.73008,1.642681 -1.50579,2.304316 -2.69217,2.304316 -1.8252,0 -2.96595,-1.665495 -2.96595,-4.334851 0,-2.760615 1.117935,-4.60863 2.806245,-4.60863 0.68445,0 1.27764,0.31941 1.27764,0.68445 0,0.06845 -0.04563,0.13689 -0.13689,0.27378 -0.36504,0.433485 -0.4563,0.661635 -0.4563,1.04949 0,0.752895 0.570375,1.27764 1.3689,1.27764 0.798525,0 1.391715,-0.63882 1.391715,-1.55142 0,-1.528605 -1.528605,-2.714985 -3.55914,-2.714985 -2.96595,0 -5.087745,2.441205 -5.087745,5.84064 0,3.239731 1.939275,5.475601 4.768335,5.475601 2.030535,0 3.1941,-0.935415 4.175145,-3.353806 l -0.889785,-0.342225 z" /><path
       inkscape:connector-curvature="0"
       id="path4163"
       d="m 47.2687,44.952784 c -0.798525,0 -1.437345,0.63882 -1.437345,1.41453 0,0.798525 0.63882,1.437345 1.41453,1.437345 0.798525,0 1.437345,-0.63882 1.437345,-1.437345 0,-0.77571 -0.63882,-1.41453 -1.41453,-1.41453 z" /></g></svg>