<?xml version="1.0" encoding="UTF-8" standalone="no"?>
<svg
   xmlns:dc="http://purl.org/dc/elements/1.1/"
   xmlns:cc="http://creativecommons.org/ns#"
   xmlns:rdf="http://www.w3.org/1999/02/22-rdf-syntax-ns#"
   xmlns:svg="http://www.w3.org/2000/svg"
   xmlns="http://www.w3.org/2000/svg"
   viewBox="0 0 539.88751 319.91251"
   height="319.91251"
   width="539.88751"
   xml:space="preserve"
   version="1.1"
   id="svg2"><metadata
     id="metadata8"><rdf:RDF><cc:Work
         rdf:about=""><dc:format>image/svg+xml</dc:format><dc:type
           rdf:resource="http://purl.org/dc/dcmitype/StillImage" /><dc:title></dc:title></cc:Work></rdf:RDF></metadata><defs
     id="defs6" /><g
     transform="matrix(1.25,0,0,-1.25,0,319.9125)"
     id="g10"><g
       style="fill:#ffffff;fill-opacity:1"
       transform="matrix(0.96572017,0,0,0.96572017,239.92904,62.404589)"
       id="g857"><path
         id="path14"
         style="fill:#ffffff;fill-opacity:1;fill-rule:nonzero;stroke:none"
         d="m -232.62191,86.587957 v -12.575 h 6.35431 c 4.3234,0 7.1039,2.1609 7.1039,6.2648 0,4.1043 -2.8238,6.3102 -7.1039,6.3102 z m 18.04611,-6.3102 c 0,-6.575 -4.8527,-10.2367 -11.2953,-10.2367 h -6.75081 V 58.128176 h -4.50039 v 32.430881 h 11.2512 c 6.3984,0 11.2953,-3.6192 11.2953,-10.2813" /><path
         id="path16"
         style="fill:#ffffff;fill-opacity:1;fill-rule:nonzero;stroke:none"
         d="m -194.4243,86.587957 v -12.1789 h 5.868 c 4.4121,0 7.2805,2.073 7.2805,6.089 0,3.9707 -2.9125,6.0899 -7.2805,6.0899 z m 17.693,-6.0899 c 0,-4.7203 -2.6476,-7.898 -6.5746,-9.3089 l 8.1184,-13.060981 h -5.2946 l -7.589,12.309781 h -6.3532 V 58.128176 h -4.5003 v 32.430881 h 10.7652 c 6.4426,0 11.4281,-3.5742 11.4281,-10.061" /><path
         id="path18"
         style="fill:#ffffff;fill-opacity:1;fill-rule:nonzero;stroke:none"
         d="m -157.5508,74.319957 c 0,-7.32381 4.8969,-12.61717 11.7805,-12.61717 6.8835,0 11.78,5.29336 11.78,12.61717 0,7.325 -4.8965,12.6649 -11.78,12.6649 -6.8836,0 -11.7805,-5.3399 -11.7805,-12.6649 z m 28.1495,0 c 0,-9.70506 -6.971,-16.766 -16.369,-16.766 -9.443,0 -16.3254,7.06094 -16.3254,16.766 0,9.6641 6.8824,16.8129 16.3254,16.8129 9.398,0 16.369,-7.1488 16.369,-16.8129" /><path
         id="path20"
         style="fill:#ffffff;fill-opacity:1;fill-rule:nonzero;stroke:none"
         d="m -108.8563,86.587957 v -12.575 h 6.355 c 4.324,0 7.104,2.1609 7.104,6.2648 0,4.1043 -2.824,6.3102 -7.104,6.3102 z m 18.048,-6.3102 c 0,-6.575 -4.855,-10.2367 -11.297,-10.2367 h -6.751 V 58.128176 h -4.5 v 32.430881 h 11.251 c 6.398,0 11.297,-3.6192 11.297,-10.2813" /><path
         id="path22"
         style="fill:#ffffff;fill-opacity:1;fill-rule:nonzero;stroke:none"
         d="m -54.9943,86.410957 h -15.574 v -9.8398 h 13.676 v -4.016 h -13.676 v -10.27932 h 15.926 v -4.147661 h -20.427 v 32.430881 h 20.075 v -4.1481" /><path
         id="path24"
         style="fill:#ffffff;fill-opacity:1;fill-rule:nonzero;stroke:none"
         d="m -34.0923,62.143017 h 15.442 v -4.014841 h -19.942 v 32.430881 h 4.5 v -28.41604" /><path
         id="path26"
         style="fill:#ffffff;fill-opacity:1;fill-rule:nonzero;stroke:none"
         d="m 22.3647,62.143017 h 15.442 v -4.014841 h -19.942 v 32.430881 h 4.5 v -28.41604" /><path
         id="path28"
         style="fill:#ffffff;fill-opacity:1;fill-rule:nonzero;stroke:none"
         d="m 72.9617,86.410957 h -15.575 v -9.8398 h 13.677 v -4.016 h -13.677 v -10.27932 h 15.927 v -4.147661 h -20.427 v 32.430881 h 20.075 v -4.1481" /><path
         id="path30"
         style="fill:#ffffff;fill-opacity:1;fill-rule:nonzero;stroke:none"
         d="m 114.9967,86.410957 -2.868,-3.2648 c -2.073,2.2508 -4.985,3.8387 -8.602,3.8387 -7.016,0 -11.783,-5.3399 -11.783,-12.6649 0,-7.28006 4.944,-12.61717 12.224,-12.61717 2.912,0 5.382,0.88125 7.324,2.29414 v 7.28003 h -8.252 v 3.927 h 12.752 v -13.41289 c -3,-2.78125 -7.06,-4.23711 -11.824,-4.23711 -9.796,0 -16.768,7.14805 -16.768,16.766 0,9.6641 6.795,16.8129 16.327,16.8129 4.853,0 8.471,-1.6769 11.47,-4.7219" /><path
         id="path32"
         style="fill:#ffffff;fill-opacity:1;fill-rule:nonzero;stroke:none"
         d="m 144.8987,91.132857 h -0.177 l -14.915,-33.004681 h 4.811 l 10.192,23.075781 10.193,-23.075781 h 4.808 l -14.912,33.004681" /><path
         id="path34"
         style="fill:#ffffff;fill-opacity:1;fill-rule:nonzero;stroke:none"
         d="m 179.3447,62.143017 h 15.441 v -4.014841 h -19.942 v 32.430881 h 4.501 v -28.41604" /></g></g></svg>