<?xml version="1.0" encoding="UTF-8" standalone="no"?>
<svg
   xmlns:dc="http://purl.org/dc/elements/1.1/"
   xmlns:cc="http://creativecommons.org/ns#"
   xmlns:rdf="http://www.w3.org/1999/02/22-rdf-syntax-ns#"
   xmlns:svg="http://www.w3.org/2000/svg"
   xmlns="http://www.w3.org/2000/svg"
   xmlns:sodipodi="http://sodipodi.sourceforge.net/DTD/sodipodi-0.dtd"
   xmlns:inkscape="http://www.inkscape.org/namespaces/inkscape"
   xml:space="preserve"
   style="enable-background:new 0 0 257.567 257.567;"
   viewBox="0 0 257.567 257.567"
   y="0px"
   x="0px"
   id="Capa_1"
   version="1.1"
   inkscape:version="0.91 r13725"
   sodipodi:docname="page-blank.svg"><sodipodi:namedview
     pagecolor="#ffffff"
     bordercolor="#666666"
     borderopacity="1"
     objecttolerance="10"
     gridtolerance="10"
     guidetolerance="10"
     inkscape:pageopacity="0"
     inkscape:pageshadow="2"
     inkscape:window-width="1920"
     inkscape:window-height="1017"
     id="namedview35"
     showgrid="false"
     inkscape:zoom="0.9162665"
     inkscape:cx="-145.15428"
     inkscape:cy="128.78349"
     inkscape:window-x="0"
     inkscape:window-y="30"
     inkscape:window-maximized="1"
     inkscape:current-layer="Capa_1" /><metadata
     id="metadata41"><rdf:RDF><cc:Work
         rdf:about=""><dc:format>image/svg+xml</dc:format><dc:type
           rdf:resource="http://purl.org/dc/dcmitype/StillImage" /><dc:title /></cc:Work></rdf:RDF></metadata><defs
     id="defs39" /><g
     id="g7" /><g
     id="g9" /><g
     id="g11" /><g
     id="g13" /><g
     id="g15" /><g
     id="g17" /><g
     id="g19" /><g
     id="g21" /><g
     id="g23" /><g
     id="g25" /><g
     id="g27" /><g
     id="g29" /><g
     id="g31" /><g
     id="g33" /><g
     id="g35" /><path
     id="path4201"
     d=""
     style="opacity:0.9;fill:#00bcd4;fill-opacity:1;fill-rule:evenodd;stroke:#607d8f;stroke-width:0.10913856;stroke-linecap:round;stroke-linejoin:round;stroke-miterlimit:4;stroke-dasharray:none;stroke-dashoffset:0;stroke-opacity:0.94117647" /><g
     id="g4163"><g
       id="g3"
       style="fill:#00bcd4;fill-opacity:1"><path
         style="fill:#00bcd4;fill-opacity:1"
         d="M226.657,97.909c-0.033-0.462-0.12-0.908-0.267-1.354c-0.065-0.179-0.114-0.359-0.196-0.544   c-0.261-0.571-0.593-1.115-1.055-1.577l0,0l0,0c0-0.005-0.005-0.011-0.005-0.011L132.3,1.594c-0.468-0.468-1.023-0.8-1.599-1.066   c-0.158-0.071-0.315-0.114-0.479-0.169c-0.462-0.163-0.936-0.261-1.425-0.288C128.683,0.06,128.574,0,128.46,0H67.113   C47.108,0,30.839,16.274,30.839,36.279v185.015c0,20.005,16.274,36.273,36.273,36.273h123.342   c19.999,0,36.273-16.268,36.273-36.273V98.273C226.727,98.148,226.662,98.034,226.657,97.909z M133.888,18.569l74.27,74.265   h-48.875c-14.006,0-25.395-11.389-25.395-25.395C133.888,67.439,133.888,18.569,133.888,18.569z M190.454,246.683H67.113   c-14.006,0-25.395-11.395-25.395-25.395V36.279c0-14.006,11.395-25.4,25.395-25.4h55.897v56.561   c0,20.005,16.274,36.273,36.273,36.273h56.566v117.576C215.849,235.294,204.46,246.683,190.454,246.683z"
         id="path5" /></g><path
       style="opacity:0.9;fill:#00bcd4;fill-opacity:1;fill-rule:evenodd;stroke:#607d8f;stroke-width:0.23482946;stroke-linecap:round;stroke-linejoin:round;stroke-miterlimit:4;stroke-dasharray:none;stroke-dashoffset:0;stroke-opacity:0.94117647"
       d="m 95.587761,137.80484 64.072269,0 c 2.45957,0 4.43966,2.2734 4.43966,5.09731 l 0,0.27514 c 0,2.82391 -1.98009,5.09731 -4.43966,5.09731 l -64.072269,0 c -2.459567,0 -4.439652,-2.2734 -4.439652,-5.09731 l 0,-0.27514 c 0,-2.82391 1.980085,-5.09731 4.439652,-5.09731 z"
       id="rect4175" /><path
       style="opacity:0.9;fill:#00bcd4;fill-opacity:1;fill-rule:evenodd;stroke:#607d8f;stroke-width:0.1863609;stroke-linecap:round;stroke-linejoin:round;stroke-miterlimit:4;stroke-dasharray:none;stroke-dashoffset:0;stroke-opacity:0.94117647"
       d="m 62.953885,137.64418 11.061116,0 c 3.741909,0 6.754349,2.37599 6.754349,5.32732 0,2.95134 -3.01244,5.32733 -6.754349,5.32733 l -11.061116,0 c -3.74191,0 -6.75435,-2.37599 -6.75435,-5.32733 0,-2.95133 3.01244,-5.32732 6.75435,-5.32732 z"
       id="rect4179" /><path
       style="opacity:0.9;fill:#00bcd4;fill-opacity:1;fill-rule:evenodd;stroke:#607d8f;stroke-width:0.23482946;stroke-linecap:round;stroke-linejoin:round;stroke-miterlimit:4;stroke-dasharray:none;stroke-dashoffset:0;stroke-opacity:0.94117647"
       d="m 95.587761,154.17563 64.072269,0 c 2.45957,0 4.43966,2.2734 4.43966,5.09731 l 0,0.27514 c 0,2.82391 -1.98009,5.0973 -4.43966,5.0973 l -64.072269,0 c -2.459567,0 -4.439652,-2.27339 -4.439652,-5.0973 l 0,-0.27514 c 0,-2.82391 1.980085,-5.09731 4.439652,-5.09731 z"
       id="rect4183" /><path
       style="opacity:0.9;fill:#00bcd4;fill-opacity:1;fill-rule:evenodd;stroke:#607d8f;stroke-width:0.1863609;stroke-linecap:round;stroke-linejoin:round;stroke-miterlimit:4;stroke-dasharray:none;stroke-dashoffset:0;stroke-opacity:0.94117647"
       d="m 62.953885,154.01497 11.061116,0 c 3.741909,0 6.754349,2.37599 6.754349,5.32732 0,2.95134 -3.01244,5.32733 -6.754349,5.32733 l -11.061116,0 c -3.74191,0 -6.75435,-2.37599 -6.75435,-5.32733 0,-2.95133 3.01244,-5.32732 6.75435,-5.32732 z"
       id="rect4185" /><path
       style="opacity:0.9;fill:#00bcd4;fill-opacity:1;fill-rule:evenodd;stroke:#607d8f;stroke-width:0.23482946;stroke-linecap:round;stroke-linejoin:round;stroke-miterlimit:4;stroke-dasharray:none;stroke-dashoffset:0;stroke-opacity:0.94117647"
       d="m 95.587761,172.31992 64.072269,0 c 2.45957,0 4.43966,2.27339 4.43966,5.0973 l 0,0.27514 c 0,2.82391 -1.98009,5.09731 -4.43966,5.09731 l -64.072269,0 c -2.459567,0 -4.439652,-2.2734 -4.439652,-5.09731 l 0,-0.27514 c 0,-2.82391 1.980085,-5.0973 4.439652,-5.0973 z"
       id="rect4187" /><path
       style="opacity:0.9;fill:#00bcd4;fill-opacity:1;fill-rule:evenodd;stroke:#607d8f;stroke-width:0.1863609;stroke-linecap:round;stroke-linejoin:round;stroke-miterlimit:4;stroke-dasharray:none;stroke-dashoffset:0;stroke-opacity:0.94117647"
       d="m 62.953885,172.15926 11.061116,0 c 3.741909,0 6.754349,2.37598 6.754349,5.32732 0,2.95134 -3.01244,5.32732 -6.754349,5.32732 l -11.061116,0 c -3.74191,0 -6.75435,-2.37598 -6.75435,-5.32732 0,-2.95134 3.01244,-5.32732 6.75435,-5.32732 z"
       id="rect4189" /><path
       style="opacity:0.9;fill:#00bcd4;fill-opacity:1;fill-rule:evenodd;stroke:#607d8f;stroke-width:0.10913856;stroke-linecap:round;stroke-linejoin:round;stroke-miterlimit:4;stroke-dasharray:none;stroke-dashoffset:0;stroke-opacity:0.94117647"
       d="m 152.90176,91.685924 c -7.22375,-1.942579 -13.01293,-6.811288 -16.31049,-13.717161 l -2.02731,-4.24567 -0.15777,-21.009172 c -0.0868,-11.555044 -0.0868,-23.773254 0,-27.151577 l 0.15777,-6.142407 36.55989,36.564778 36.55988,36.564778 -25.91887,-0.03591 c -20.84537,-0.02887 -26.4952,-0.190894 -28.8631,-0.827657 z"
       id="path4191" /><path
       style="opacity:0.9;fill:#00bcd4;fill-opacity:1;fill-rule:evenodd;stroke:#607d8f;stroke-width:0.10913856;stroke-linecap:round;stroke-linejoin:round;stroke-miterlimit:4;stroke-dasharray:none;stroke-dashoffset:0;stroke-opacity:0.94117647"
       d="m 133.99694,43.709991 c 1.1e-4,-13.806027 0.0709,-19.375718 0.15734,-12.37709 0.0864,6.998628 0.0863,18.294468 -2.1e-4,25.101867 -0.0865,6.8074 -0.15725,1.08125 -0.15713,-12.724777 z"
       id="path4193" /><path
       style="opacity:0.9;fill:#00bcd4;fill-opacity:1;fill-rule:evenodd;stroke:#607d8f;stroke-width:0.10913856;stroke-linecap:round;stroke-linejoin:round;stroke-miterlimit:4;stroke-dasharray:none;stroke-dashoffset:0;stroke-opacity:0.94117647"
       d="m 59.804049,256.54117 c -12.675856,-2.7905 -22.357713,-11.3661 -26.91389,-23.83872 l -1.462134,-4.00261 -0.145137,-98.0814 C 31.156442,45.167902 31.243137,32.031611 31.956093,28.612256 34.644636,15.717931 45.264678,4.7186519 58.226714,1.4035215 62.194241,0.38879879 64.382089,0.32741562 96.581761,0.32741562 l 34.147509,0 47.1097,47.06600138 c 25.91033,25.8863 47.46171,47.7291 47.89195,48.539557 1.18875,2.239234 1.14875,127.127486 -0.0425,132.751206 -2.30524,10.88266 -9.77268,20.26051 -20.001,25.11792 -7.72709,3.66958 -4.67386,3.53127 -77.12607,3.49375 -52.143724,-0.027 -66.150099,-0.18074 -68.757285,-0.75468 z M 195.51827,246.37935 c 9.73767,-2.02446 18.0011,-10.2879 20.02556,-20.02556 0.41661,-2.0039 0.6012,-21.30574 0.6012,-62.86649 l 0,-59.97474 -31.78661,-0.16508 -31.7866,-0.16508 -4.4826,-1.51423 C 136.53736,97.765945 127.4315,88.036205 124.4608,76.4209 c -1.01798,-3.980256 -1.08354,-6.096993 -1.08354,-34.980971 l 0,-30.744351 -29.625609,0 c -32.113458,0 -32.76483,0.05151 -38.702299,3.060249 -3.622999,1.835912 -8.62985,6.842763 -10.465762,10.465762 -3.233215,6.380442 -3.060249,0.467481 -3.060249,104.616471 0,84.07535 0.100377,95.92516 0.836498,98.75132 2.38145,9.143 9.763096,16.37627 18.998276,18.61639 3.801751,0.92216 129.775475,1.08516 134.160155,0.17358 z M 207.95964,92.68441 c 0,-0.225922 -16.6982,-17.107615 -37.10711,-37.514871 l -37.10711,-37.104099 0,26.501974 c 0,22.7825 0.12342,26.917951 0.87939,29.465905 2.72638,9.188997 9.33165,15.752813 18.17555,18.061465 3.14062,0.819838 6.82709,0.941435 29.37529,0.968943 14.18119,0.0173 25.78399,-0.153389 25.78399,-0.379317 z"
       id="path4195" /><path
       style="opacity:0.9;fill:#00bcd4;fill-opacity:1;fill-rule:evenodd;stroke:#607d8f;stroke-width:0.10913856;stroke-linecap:round;stroke-linejoin:round;stroke-miterlimit:4;stroke-dasharray:none;stroke-dashoffset:0;stroke-opacity:0.94117647"
       d="M 174.12668,92.022147 C 154.15661,91.745355 152.97409,91.672161 150.2176,90.542266 144.32613,88.127319 139.59182,83.488347 136.26313,76.86881 l -1.43662,-2.856903 0.14157,-26.748626 0.14157,-26.748628 36.01417,36.017421 36.01418,36.017419 -6.00107,-0.118077 c -3.30059,-0.06494 -15.4552,-0.249114 -27.01025,-0.409269 z"
       id="path4197" /><path
       style="opacity:0.9;fill:#00bcd4;fill-opacity:1;fill-rule:evenodd;stroke:#607d8f;stroke-width:0.10913856;stroke-linecap:round;stroke-linejoin:round;stroke-miterlimit:4;stroke-dasharray:none;stroke-dashoffset:0;stroke-opacity:0.94117647"
       d="m 134.48364,74.360578 c 0.19424,-0.549777 0.35316,-12.766473 0.35316,-27.148215 0,-14.381742 0.18418,-26.148683 0.40927,-26.148758 0.69996,-2.33e-4 0.206,53.088815 -0.49996,53.733965 -0.44489,0.406571 -0.51768,0.285378 -0.26247,-0.436992 z"
       id="path4199" /><path
       style="opacity:0.9;fill:#00bcd4;fill-opacity:1;fill-rule:evenodd;stroke:#607d8f;stroke-width:0.10913856;stroke-linecap:round;stroke-linejoin:round;stroke-miterlimit:4;stroke-dasharray:none;stroke-dashoffset:0;stroke-opacity:0.94117647"
       d="m 157.61948,92.188092 c 0.37516,-0.151382 0.98907,-0.151382 1.36423,0 0.37516,0.151381 0.0682,0.275239 -0.68212,0.275239 -0.75032,0 -1.05728,-0.123858 -0.68211,-0.275239 z"
       id="path4203" /></g></svg>