<?xml version="1.0" encoding="UTF-8" standalone="no"?>
<!-- Generator: Adobe Illustrator 18.1.1, SVG Export Plug-In . SVG Version: 6.00 Build 0)  -->

<svg
   xmlns:dc="http://purl.org/dc/elements/1.1/"
   xmlns:cc="http://creativecommons.org/ns#"
   xmlns:rdf="http://www.w3.org/1999/02/22-rdf-syntax-ns#"
   xmlns:svg="http://www.w3.org/2000/svg"
   xmlns="http://www.w3.org/2000/svg"
   xmlns:sodipodi="http://sodipodi.sourceforge.net/DTD/sodipodi-0.dtd"
   xmlns:inkscape="http://www.inkscape.org/namespaces/inkscape"
   version="1.1"
   id="Capa_1"
   x="0px"
   y="0px"
   viewBox="0 0 304.761 304.761"
   style="enable-background:new 0 0 304.761 304.761;"
   xml:space="preserve"
   sodipodi:docname="safe.svg"
   inkscape:version="0.92.1 r15371"><metadata
     id="metadata46"><rdf:RDF><cc:Work
         rdf:about=""><dc:format>image/svg+xml</dc:format><dc:type
           rdf:resource="http://purl.org/dc/dcmitype/StillImage" /><dc:title /></cc:Work></rdf:RDF></metadata><defs
     id="defs44" /><sodipodi:namedview
     pagecolor="#ffffff"
     bordercolor="#666666"
     borderopacity="1"
     objecttolerance="10"
     gridtolerance="10"
     guidetolerance="10"
     inkscape:pageopacity="0"
     inkscape:pageshadow="2"
     inkscape:window-width="1920"
     inkscape:window-height="1051"
     id="namedview42"
     showgrid="false"
     inkscape:zoom="1.5487547"
     inkscape:cx="47.134643"
     inkscape:cy="151.85221"
     inkscape:window-x="0"
     inkscape:window-y="0"
     inkscape:window-maximized="1"
     inkscape:current-layer="Capa_1" /><g
     id="g4534"
     style="fill:#fdd835;fill-opacity:1"><path
       d="m 168.493,241.462 c 0,-40.269 32.644,-72.911 72.911,-72.911 8.476,0 13.96,1.012 19.709,2.711 3.871,1.641 5.352,-1.592 5.756,-3.1 2.634,-9.839 4.111,-19.873 4.111,-29.982 0,-0.677 -0.378,-86.735 -0.378,-87.798 0,-8.487 -4.863,-8.467 -7.034,-8.456 C 247.99,42 232.111,42.007 215.407,37.192 180.703,27.186 149.85,0 138.121,0 126.76,0 103.852,27.187 69.147,37.192 49.577,42.834 30.81,41.787 13.253,40.973 11.19,40.878 7.906,40.331 6.864,47.481 6.601,49.283 5.262,137.212 5.262,138.18 c 0,85.898 106.271,166.581 132.857,166.581 8.507,0 22.214,-6.832 40.662,-20.561 2.458,-2.123 1.141,-3.531 0.414,-4.717 -6.782,-11.07 -10.702,-24.085 -10.702,-38.021 z"
       id="path2"
       style="fill:#fdd835;fill-opacity:1"
       inkscape:connector-curvature="0" /><path
       d="m 241.862,278.639 c -2.456,2.647 -6.84,3.057 -9.743,0.91 l -46.173,-34.143 c -2.902,-2.146 -3.501,-6.262 -1.33,-9.146 l 5.925,-7.865 c 2.171,-2.884 6.329,-3.496 9.24,-1.36 l 29.609,21.728 c 2.91,2.135 7.3,1.717 9.755,-0.931 l 41.79,-43.742 c 2.455,-2.648 6.626,-2.802 9.269,-0.342 l 7.207,6.708 c 2.643,2.46 2.797,6.638 0.342,9.285 z"
       id="path4"
       style="fill:#fdd835;fill-opacity:1"
       inkscape:connector-curvature="0" /></g><g
     id="g11" /><g
     id="g13" /><g
     id="g15" /><g
     id="g17" /><g
     id="g19" /><g
     id="g21" /><g
     id="g23" /><g
     id="g25" /><g
     id="g27" /><g
     id="g29" /><g
     id="g31" /><g
     id="g33" /><g
     id="g35" /><g
     id="g37" /><g
     id="g39" /></svg>