<?xml version="1.0" encoding="UTF-8" standalone="no"?>
<svg
   xmlns:dc="http://purl.org/dc/elements/1.1/"
   xmlns:cc="http://creativecommons.org/ns#"
   xmlns:rdf="http://www.w3.org/1999/02/22-rdf-syntax-ns#"
   xmlns:svg="http://www.w3.org/2000/svg"
   xmlns="http://www.w3.org/2000/svg"
   xml:space="preserve"
   style="enable-background:new 0 0 58 58;"
   viewBox="0 0 58 58"
   y="0px"
   x="0px"
   id="Capa_1"
   version="1.1"><metadata
     id="metadata55"><rdf:RDF><cc:Work
         rdf:about=""><dc:format>image/svg+xml</dc:format><dc:type
           rdf:resource="http://purl.org/dc/dcmitype/StillImage" /><dc:title></dc:title></cc:Work></rdf:RDF></metadata><defs
     id="defs53" /><g
     id="g4155"><polygon
       id="polygon5"
       points="0,16 0,58 58,58 58,16 48,0 10,0 "
       style="fill:#607d8f;fill-opacity:0.94117647" /><path
       id="path7"
       d="m 35,27 -12,0 c -1.1,0 -2,-0.9 -2,-2 l 0,0 c 0,-1.1 0.9,-2 2,-2 l 12,0 c 1.1,0 2,0.9 2,2 l 0,0 c 0,1.1 -0.9,2 -2,2 z"
       style="fill:#ffffff;fill-opacity:0.94117647" /><g
       style="fill:#ffffff;fill-opacity:0.94117647"
       id="g9"><path
         id="path11"
         d="m 37,51 -16,0 c -0.552,0 -1,0.447 -1,1 0,0.553 0.448,1 1,1 l 16,0 c 0.552,0 1,-0.447 1,-1 0,-0.553 -0.448,-1 -1,-1 z"
         style="fill:#ffffff;fill-opacity:0.94117647" /><path
         id="path13"
         d="m 21,43 c 0.256,0 0.512,-0.098 0.707,-0.293 L 23,41.414 23,48 c 0,0.553 0.448,1 1,1 0.552,0 1,-0.447 1,-1 l 0,-6.586 1.293,1.293 C 26.488,42.902 26.744,43 27,43 c 0.256,0 0.512,-0.098 0.707,-0.293 0.391,-0.391 0.391,-1.023 0,-1.414 l -2.999,-2.999 c -0.092,-0.093 -0.203,-0.166 -0.326,-0.217 -0.244,-0.101 -0.52,-0.101 -0.764,0 -0.123,0.051 -0.233,0.124 -0.326,0.217 l -2.999,2.999 c -0.391,0.391 -0.391,1.023 0,1.414 C 20.488,42.902 20.744,43 21,43 Z"
         style="fill:#ffffff;fill-opacity:0.94117647" /><path
         id="path15"
         d="m 31,43 c 0.256,0 0.512,-0.098 0.707,-0.293 L 33,41.414 33,48 c 0,0.553 0.448,1 1,1 0.552,0 1,-0.447 1,-1 l 0,-6.586 1.293,1.293 C 36.488,42.902 36.744,43 37,43 c 0.256,0 0.512,-0.098 0.707,-0.293 0.391,-0.391 0.391,-1.023 0,-1.414 l -2.999,-2.999 c -0.092,-0.093 -0.203,-0.166 -0.326,-0.217 -0.244,-0.101 -0.52,-0.101 -0.764,0 -0.123,0.051 -0.233,0.124 -0.326,0.217 l -2.999,2.999 c -0.391,0.391 -0.391,1.023 0,1.414 C 30.488,42.902 30.744,43 31,43 Z"
         style="fill:#ffffff;fill-opacity:0.94117647" /></g><polygon
       id="polygon17"
       points="58,16 48,0 10,0 0,16 "
       style="fill:#607d8f;fill-opacity:0.94117647" /><rect
       y="0"
       id="rect19"
       height="16"
       width="2"
       style="fill:#ffffff;fill-opacity:0.94117647"
       x="28" /></g><g
     id="g21" /><g
     id="g23" /><g
     id="g25" /><g
     id="g27" /><g
     id="g29" /><g
     id="g31" /><g
     id="g33" /><g
     id="g35" /><g
     id="g37" /><g
     id="g39" /><g
     id="g41" /><g
     id="g43" /><g
     id="g45" /><g
     id="g47" /><g
     id="g49" /></svg>