<?xml version="1.0" encoding="UTF-8" standalone="no"?>
<svg
   xmlns:dc="http://purl.org/dc/elements/1.1/"
   xmlns:cc="http://creativecommons.org/ns#"
   xmlns:rdf="http://www.w3.org/1999/02/22-rdf-syntax-ns#"
   xmlns:svg="http://www.w3.org/2000/svg"
   xmlns="http://www.w3.org/2000/svg"
   version="1.1"
   id="Capa_1"
   x="0px"
   y="0px"
   viewBox="0 0 59 59"
   style="enable-background:new 0 0 59 59;"
   xml:space="preserve"><metadata
     id="metadata69"><rdf:RDF><cc:Work
         rdf:about=""><dc:format>image/svg+xml</dc:format><dc:type
           rdf:resource="http://purl.org/dc/dcmitype/StillImage" /><dc:title></dc:title></cc:Work></rdf:RDF></metadata><defs
     id="defs67" /><path
     style="fill:#607d8f;fill-opacity:0.94117647"
     d="M 15,39.5 9.833,12.5 58,12.5 58,35.512 C 58,37.714 56.215,39.5 54.012,39.5 L 15,39.5"
     id="path7" /><path
     style="fill:#607d8f;fill-opacity:0.94117647"
     d="m 54.013,40.5 -39.84,0 -5.55,-29 50.377,0 0,24.013 c 0,2.75 -2.237,4.987 -4.987,4.987 z m -38.186,-2 38.186,0 C 55.66,38.5 57,37.16 57,35.513 l 0,-22.013 -45.957,0 4.784,25 z"
     id="path9" /><g
     style="fill:#f2f2f2;fill-opacity:0.94117647;stroke:#607d8f;stroke-opacity:0.94117647;stroke-width:0.2;stroke-miterlimit:4;stroke-dasharray:none"
     id="g11"><circle
       id="circle13"
       r="5"
       cy="48.5"
       cx="22"
       style="fill:#f2f2f2;fill-opacity:0.94117647;stroke:#607d8f;stroke-opacity:0.94117647;stroke-width:0.2;stroke-miterlimit:4;stroke-dasharray:none" /><path
       id="path15"
       d="m 22,54.5 c -3.309,0 -6,-2.691 -6,-6 0,-3.309 2.691,-6 6,-6 3.309,0 6,2.691 6,6 0,3.309 -2.691,6 -6,6 z m 0,-10 c -2.206,0 -4,1.794 -4,4 0,2.206 1.794,4 4,4 2.206,0 4,-1.794 4,-4 0,-2.206 -1.794,-4 -4,-4 z"
       style="fill:#f2f2f2;fill-opacity:0.94117647;stroke:#607d8f;stroke-opacity:0.94117647;stroke-width:0.2;stroke-miterlimit:4;stroke-dasharray:none" /></g><g
     style="fill:#f2f2f2;fill-opacity:0.94117647;stroke:#607d8f;stroke-opacity:0.94117647;stroke-width:0.2;stroke-miterlimit:4;stroke-dasharray:none"
     id="g17"><circle
       id="circle19"
       r="5"
       cy="48.5"
       cx="45"
       style="fill:#f2f2f2;fill-opacity:0.94117647;stroke:#607d8f;stroke-opacity:0.94117647;stroke-width:0.2;stroke-miterlimit:4;stroke-dasharray:none" /><path
       id="path21"
       d="m 45,54.5 c -3.309,0 -6,-2.691 -6,-6 0,-3.309 2.691,-6 6,-6 3.309,0 6,2.691 6,6 0,3.309 -2.691,6 -6,6 z m 0,-10 c -2.206,0 -4,1.794 -4,4 0,2.206 1.794,4 4,4 2.206,0 4,-1.794 4,-4 0,-2.206 -1.794,-4 -4,-4 z"
       style="fill:#f2f2f2;fill-opacity:0.94117647;stroke:#607d8f;stroke-opacity:0.94117647;stroke-width:0.2;stroke-miterlimit:4;stroke-dasharray:none" /></g><path
     id="path23"
     d="m 55,48.5 -5.101,0 c -0.553,0 -1,-0.447 -1,-1 0,-0.553 0.447,-1 1,-1 l 5.101,0 c 0.553,0 1,0.447 1,1 0,0.553 -0.447,1 -1,1 z"
     style="fill:#607d8f;fill-opacity:0.94117647" /><path
     id="path25"
     d="m 40.101,48.5 -13.202,0 c -0.553,0 -1,-0.447 -1,-1 0,-0.553 0.447,-1 1,-1 l 13.201,0 c 0.553,0 1,0.447 1,1 0,0.553 -0.447,1 -0.999,1 z"
     style="fill:#607d8f;fill-opacity:0.94117647" /><path
     id="path27"
     d="m 9.832,13.5 c -0.48,0 -0.904,-0.347 -0.985,-0.836 L 8.152,8.5 6,8.5 c -0.553,0 -1,-0.447 -1,-1 0,-0.553 0.447,-1 1,-1 l 3.848,0 0.972,5.836 c 0.091,0.545 -0.277,1.06 -0.822,1.15 C 9.941,13.496 9.887,13.5 9.832,13.5 Z"
     style="fill:#607d8f;fill-opacity:0.94117647" /><path
     id="path29"
     d="m 59,20.5 -9,0 0,-9 -11,0 0,9 -7,0 0,-9 -11,0 0,9 -10.653,0 2.104,11 8.549,0 0,8.998 11,-0.003 0,-8.995 7,0 0,8.992 11,-0.003 0,-8.989 9,0 0,-11 z m -18,-7 7,0 0,7 -7,0 0,-7 z m 7,9 0,7 -7,0 0,-7 7,0 z m -25,-9 7,0 0,7 -7,0 0,-7 z m 7,9 0,7 -7,0 0,-7 7,0 z m -15.896,7 -1.34,-7 8.236,0 0,7 -6.896,0 z M 30,38.495 l -7,0.003 0,-6.998 7,0 0,6.995 z m 2,-8.995 0,-7 7,0 0,7 -7,0 z m 16,8.989 -7,0.003 0,-6.992 7,0 0,6.989 z m 9,-8.989 -7,0 0,-7 7,0 0,7 z"
     style="fill:#607d8f;fill-opacity:0.94117647" /><path
     id="path31"
     d="M 17.101,48.5 14,48.5 c -1.406,0 -2.758,-0.603 -3.707,-1.652 -0.947,-1.047 -1.409,-2.453 -1.268,-3.858 0.255,-2.518 2.522,-4.489 5.163,-4.489 0.553,0 1,0.447 1,1 0,0.553 -0.447,1 -1,1 -1.627,0 -3.021,1.182 -3.173,2.69 -0.087,0.855 0.184,1.678 0.761,2.316 0.572,0.631 1.382,0.993 2.224,0.993 l 3.101,0 c 0.553,0 1,0.447 1,1 0,0.553 -0.448,1 -1,1 z"
     style="fill:#607d8f;fill-opacity:0.94117647" /><circle
     id="circle33"
     r="3"
     cy="7.5"
     cx="3"
     style="fill:#607d8f;fill-opacity:0.94117647" /><g
     id="g35" /><g
     id="g37" /><g
     id="g39" /><g
     id="g41" /><g
     id="g43" /><g
     id="g45" /><g
     id="g47" /><g
     id="g49" /><g
     id="g51" /><g
     id="g53" /><g
     id="g55" /><g
     id="g57" /><g
     id="g59" /><g
     id="g61" /><g
     id="g63" /></svg>