<?xml version="1.0" encoding="UTF-8" standalone="no"?>
<svg
   xmlns:dc="http://purl.org/dc/elements/1.1/"
   xmlns:cc="http://creativecommons.org/ns#"
   xmlns:rdf="http://www.w3.org/1999/02/22-rdf-syntax-ns#"
   xmlns:svg="http://www.w3.org/2000/svg"
   xmlns="http://www.w3.org/2000/svg"
   xml:space="preserve"
   style="enable-background:new 0 0 59 59;"
   viewBox="0 0 59 59"
   y="0px"
   x="0px"
   id="Capa_1"
   version="1.1"><metadata
     id="metadata61"><rdf:RDF><cc:Work
         rdf:about=""><dc:format>image/svg+xml</dc:format><dc:type
           rdf:resource="http://purl.org/dc/dcmitype/StillImage" /><dc:title></dc:title></cc:Work></rdf:RDF></metadata><defs
     id="defs59" /><rect
     height="38"
     width="4"
     style="fill:#e38e23"
     y="11"
     x="50.493999"
     id="XMLID_112_" /><g
     id="g4232"><rect
       height="31"
       width="46"
       style="fill:#607d8f;fill-opacity:0.94117647"
       y="14.493"
       x="0.5"
       id="XMLID_127_" /><rect
       height="31"
       width="4"
       style="fill:#607d8f;fill-opacity:0.94117647"
       y="14.493"
       x="54.5"
       id="XMLID_126_" /><path
       id="XMLID_125_"
       style="fill:#ffffff"
       d="m 38.494,27 -3,0 c -0.552,0 -1,-0.447 -1,-1 0,-0.553 0.448,-1 1,-1 l 3,0 c 0.552,0 1,0.447 1,1 0,0.553 -0.448,1 -1,1" /><path
       id="XMLID_124_"
       style="fill:#ffffff"
       d="m 23.494,23 -3,0 c -0.552,0 -1,-0.447 -1,-1 0,-0.553 0.448,-1 1,-1 l 3,0 c 0.552,0 1,0.447 1,1 0,0.553 -0.449,1 -1,1" /><path
       id="XMLID_123_"
       style="fill:#ffffff"
       d="m 38.494,23 -7,0 c -0.552,0 -1,-0.447 -1,-1 0,-0.553 0.448,-1 1,-1 l 7,0 c 0.552,0 1,0.447 1,1 0,0.553 -0.448,1 -1,1" /><path
       id="XMLID_122_"
       style="fill:#ffffff"
       d="m 27.494,23 c -0.27,0 -0.52,-0.11 -0.71,-0.29 -0.18,-0.19 -0.29,-0.45 -0.29,-0.71 0,-0.26 0.11,-0.521 0.29,-0.71 0.37,-0.37 1.04,-0.37 1.42,0 0.18,0.189 0.29,0.45 0.29,0.71 0,0.26 -0.11,0.52 -0.29,0.71 -0.19,0.18 -0.451,0.29 -0.71,0.29" /><path
       id="XMLID_121_"
       style="fill:#ffffff"
       d="m 31.494,27 -7,0 c -0.552,0 -1,-0.447 -1,-1 0,-0.553 0.448,-1 1,-1 l 7,0 c 0.552,0 1,0.447 1,1 0,0.553 -0.448,1 -1,1" /><path
       id="XMLID_120_"
       style="fill:#ffffff"
       d="m 20.494,27 c -0.27,0 -0.52,-0.11 -0.71,-0.29 -0.18,-0.19 -0.29,-0.45 -0.29,-0.71 0,-0.271 0.11,-0.521 0.29,-0.71 0.37,-0.37 1.04,-0.37 1.42,0 0.18,0.189 0.29,0.439 0.29,0.71 0,0.26 -0.11,0.52 -0.29,0.71 -0.19,0.18 -0.451,0.29 -0.71,0.29" /><path
       id="XMLID_119_"
       style="fill:#ffffff"
       d="m 9.494,38.223 c -2.757,0 -5,-2.243 -5,-5 0,-0.553 0.448,-1 1,-1 0.552,0 1,0.447 1,1 0,1.654 1.346,3 3,3 0.884,0 1.72,-0.388 2.292,-1.064 0.256,-0.303 0.374,-0.696 0.331,-1.106 -0.046,-0.438 -0.272,-0.847 -0.622,-1.118 L 6.265,28.867 C 5.488,28.262 4.983,27.354 4.882,26.375 4.782,25.419 5.064,24.494 5.676,23.772 6.628,22.646 8.02,22 9.494,22 c 2.757,0 5,2.244 5,5 0,0.553 -0.448,1 -1,1 -0.552,0 -1,-0.447 -1,-1 0,-1.654 -1.346,-3 -3,-3 -0.884,0 -1.72,0.388 -2.292,1.065 -0.256,0.303 -0.374,0.694 -0.331,1.103 0.046,0.439 0.272,0.848 0.622,1.12 l 5.23,4.069 c 0.777,0.604 1.281,1.511 1.383,2.488 0.1,0.957 -0.182,1.882 -0.793,2.606 -0.953,1.126 -2.345,1.772 -3.819,1.772" /><path
       id="XMLID_118_"
       style="fill:#ffffff"
       d="m 9.494,40 c -0.552,0 -1,-0.447 -1,-1 l 0,-18 c 0,-0.553 0.448,-1 1,-1 0.552,0 1,0.447 1,1 l 0,18 c 0,0.553 -0.448,1 -1,1" /><path
       id="XMLID_117_"
       style="fill:#ffffff"
       d="m 23.638,32.4 c -2.191,1.141 -2.928,3.32 -3.196,5.582 -0.414,-0.347 -0.828,-0.693 -1.242,-1.04 -0.981,-0.822 -2.404,0.585 -1.414,1.414 0.935,0.784 1.871,1.567 2.806,2.351 0.662,0.554 1.676,0.211 1.707,-0.707 0.073,-2.168 0.178,-4.743 2.348,-5.873 1.146,-0.596 0.133,-2.322 -1.009,-1.727" /><path
       id="XMLID_116_"
       style="fill:#ffffff"
       d="m 32.977,37.483 c -0.52,-0.93 -1.642,-1.391 -2.688,-1.095 -1.365,0.386 -2.982,2.042 -3.936,0.106 -0.571,-1.157 -2.296,-0.143 -1.727,1.01 0.513,1.04 1.5,1.797 2.669,1.931 0.607,0.069 1.117,-0.012 1.688,-0.226 0.407,-0.152 1.923,-1.331 2.267,-0.717 0.629,1.127 2.357,0.118 1.727,-1.009" /><rect
       id="XMLID_115_"
       x="46.493999"
       y="7"
       style="fill:#e6e7e9"
       width="4"
       height="4" /><path
       id="XMLID_114_"
       style="fill:#d85b4b"
       d="M 50.494,0 48.479,0 C 48.205,0 47.944,0.056 47.706,0.156 47.588,0.206 47.475,0.268 47.369,0.339 46.841,0.696 46.494,1.3 46.494,1.985 l 0,5.015 4,0 0,-7 z" /><path
       id="XMLID_113_"
       style="fill:#d85b4b"
       d="m 52.508,0 0,0 c 0.274,0 0.535,0.056 0.773,0.156 C 53.043,0.056 52.783,0 52.508,0" /><rect
       id="XMLID_111_"
       x="50.493999"
       y="7"
       style="fill:#cfcece"
       width="4"
       height="4" /><path
       id="XMLID_110_"
       style="fill:#d85b4b"
       d="m 54.494,1.985 0,0 c 0,-0.685 -0.347,-1.289 -0.875,-1.646 0.527,0.357 0.875,0.961 0.875,1.646" /><path
       id="XMLID_109_"
       style="fill:#c56256"
       d="m 54.494,7 0,-5.015 C 54.494,1.299 54.147,0.696 53.619,0.339 53.513,0.268 53.4,0.206 53.282,0.156 53.043,0.056 52.783,0 52.509,0 l -2.015,0 0,7 4,0 z" /></g><polygon
     points="46.494,49 50.494,56 54.494,49 "
     style="fill:#edddc8"
     id="XMLID_108_" /><path
     d="m 49.494,58 c 0,0.553 0.447,1 1,1 0.553,0 1,-0.447 1,-1 l 0,-4 -2,0 0,4 z"
     style="fill:#5f5f5f"
     id="XMLID_107_" /><rect
     height="38"
     width="4"
     style="fill:#f39d20"
     y="11"
     x="46.493999"
     id="XMLID_106_" /><g
     id="g27" /><g
     id="g29" /><g
     id="g31" /><g
     id="g33" /><g
     id="g35" /><g
     id="g37" /><g
     id="g39" /><g
     id="g41" /><g
     id="g43" /><g
     id="g45" /><g
     id="g47" /><g
     id="g49" /><g
     id="g51" /><g
     id="g53" /><g
     id="g55" /></svg>