<?xml version="1.0" encoding="UTF-8" standalone="no"?>
<svg
   xmlns:dc="http://purl.org/dc/elements/1.1/"
   xmlns:cc="http://creativecommons.org/ns#"
   xmlns:rdf="http://www.w3.org/1999/02/22-rdf-syntax-ns#"
   xmlns:svg="http://www.w3.org/2000/svg"
   xmlns="http://www.w3.org/2000/svg"
   xml:space="preserve"
   style="enable-background:new 0 0 56 56;"
   viewBox="0 0 56 56"
   y="0px"
   x="0px"
   id="Capa_1"
   version="1.1"><metadata
     id="metadata52"><rdf:RDF><cc:Work
         rdf:about=""><dc:format>image/svg+xml</dc:format><dc:type
           rdf:resource="http://purl.org/dc/dcmitype/StillImage" /><dc:title></dc:title></cc:Work></rdf:RDF></metadata><defs
     id="defs50" /><path
     id="XMLID_139_"
     style="fill:#607d8f;fill-opacity:0.94117647"
     d="M 31,56 C 17.469,56 6.5,43.464 6.5,28 6.5,12.536 17.469,0 31,0 44.531,0 55.5,12.536 55.5,28 55.5,43.464 44.531,56 31,56" /><path
     id="XMLID_138_"
     style="fill:#607d8f;fill-opacity:0.94117647"
     d="M 6.5,28 C 6.5,13.698 15.885,1.908 28,0.217 27.016,0.079 26.016,0 25,0 11.469,0 0.5,12.536 0.5,28 0.5,43.464 11.469,56 25,56 26.016,56 27.016,55.921 28,55.784 15.885,54.092 6.5,42.302 6.5,28" /><path
     id="XMLID_137_"
     style="fill:#f2f2f2;fill-opacity:0.94117647"
     d="m 6.499,29.001 -5.998,0 c 0.019,0.673 0.058,1.34 0.119,2 l 6.003,0 c -0.063,-0.659 -0.104,-1.326 -0.124,-2" /><path
     id="XMLID_136_"
     style="fill:#f2f2f2;fill-opacity:0.94117647"
     d="m 6.727,24.001 -5.996,0 c -0.083,0.659 -0.142,1.327 -0.184,2 l 6,0 c 0.041,-0.672 0.098,-1.34 0.18,-2" /><path
     id="XMLID_135_"
     style="fill:#f2f2f2;fill-opacity:0.94117647"
     d="m 7.049,34.001 -6.001,0 c 0.13,0.676 0.28,1.343 0.451,2 l 5.999,0 c -0.171,-0.656 -0.32,-1.323 -0.449,-2" /><path
     id="XMLID_134_"
     style="fill:#f2f2f2;fill-opacity:0.94117647"
     d="m 8.448,39.001 -6.004,0 c 0.255,0.682 0.537,1.347 0.837,2 l 6.002,0 c -0.301,-0.651 -0.58,-1.318 -0.835,-2" /><path
     id="XMLID_133_"
     style="fill:#f2f2f2;fill-opacity:0.94117647"
     d="m 7.772,19.001 -5.994,0 c -0.194,0.657 -0.376,1.322 -0.528,2 l 6.007,0 c 0.151,-0.675 0.321,-1.344 0.515,-2" /><path
     id="XMLID_132_"
     style="fill:#f2f2f2;fill-opacity:0.94117647"
     d="m 9.764,14.002 -6.001,0 c -0.329,0.651 -0.64,1.317 -0.924,2 l 6.004,0 c 0.284,-0.683 0.591,-1.35 0.921,-2" /><path
     id="XMLID_131_"
     style="fill:#f2f2f2;fill-opacity:0.94117647"
     d="m 13.845,8.002 -6.007,0 c -0.569,0.636 -1.11,1.303 -1.622,2 l 6.005,0 c 0.512,-0.697 1.054,-1.364 1.624,-2" /><path
     id="XMLID_130_"
     style="fill:#f2f2f2;fill-opacity:0.94117647"
     d="m 19.959,3.001 -6.014,0 c -1.02,0.59 -2.002,1.258 -2.935,2 l 6.009,0 c 0.934,-0.741 1.916,-1.409 2.94,-2" /><path
     id="XMLID_129_"
     style="fill:#f2f2f2;fill-opacity:0.94117647"
     d="m 11.519,45.001 -6.002,0 c 0.465,0.693 0.954,1.36 1.473,2 l 6.007,0 c -0.52,-0.64 -1.012,-1.307 -1.478,-2" /><path
     id="XMLID_128_"
     style="fill:#f2f2f2;fill-opacity:0.94117647"
     d="m 9.834,50.001 c 0.803,0.723 1.644,1.395 2.524,2 l 6.015,0 c -0.885,-0.607 -1.734,-1.274 -2.542,-2 l -5.997,0 z" /><path
     id="XMLID_111_"
     style="fill:#607d8f;fill-opacity:0.94117647"
     d="m 31.085,50.524 -0.085,0 c -0.7,0 -1.405,-0.042 -2.095,-0.124 -0.548,-0.066 -0.941,-0.563 -0.874,-1.112 0.064,-0.548 0.547,-0.93 1.111,-0.874 0.61,0.073 1.236,0.11 1.857,0.11 0.553,0 1.042,0.448 1.042,1 0.001,0.552 -0.403,1 -0.956,1 m 5.816,-1.077 c -0.404,0 -0.785,-0.247 -0.937,-0.648 -0.194,-0.516 0.067,-1.093 0.583,-1.288 0.578,-0.218 1.153,-0.473 1.706,-0.757 0.493,-0.254 1.094,-0.059 1.348,0.432 0.252,0.491 0.059,1.094 -0.434,1.346 -0.621,0.32 -1.265,0.605 -1.915,0.85 -0.115,0.044 -0.234,0.065 -0.351,0.065 M 23.366,48.683 c -0.153,0 -0.308,-0.035 -0.452,-0.109 -0.618,-0.313 -1.226,-0.666 -1.809,-1.048 -0.463,-0.302 -0.592,-0.922 -0.289,-1.384 0.304,-0.461 0.922,-0.591 1.385,-0.288 0.521,0.341 1.065,0.657 1.618,0.937 0.493,0.25 0.689,0.852 0.439,1.344 -0.176,0.348 -0.527,0.548 -0.892,0.548 m 20.111,-3.558 c -0.255,0 -0.509,-0.096 -0.703,-0.288 -0.394,-0.389 -0.397,-1.022 -0.009,-1.415 0.437,-0.44 0.858,-0.913 1.259,-1.403 0.348,-0.428 0.977,-0.493 1.405,-0.145 0.43,0.349 0.493,0.979 0.146,1.407 -0.44,0.54 -0.907,1.061 -1.387,1.547 -0.196,0.198 -0.454,0.297 -0.711,0.297 m -26.22,-1.407 c -0.29,0 -0.576,-0.125 -0.773,-0.366 -0.432,-0.525 -0.848,-1.085 -1.238,-1.664 -0.31,-0.457 -0.19,-1.079 0.267,-1.389 0.459,-0.308 1.079,-0.188 1.39,0.27 0.356,0.527 0.736,1.038 1.129,1.516 0.349,0.427 0.288,1.057 -0.141,1.407 -0.186,0.152 -0.411,0.226 -0.634,0.226 M 47.87,38.579 c -0.133,0 -0.268,-0.027 -0.399,-0.083 -0.506,-0.221 -0.737,-0.81 -0.517,-1.317 0.251,-0.576 0.48,-1.172 0.682,-1.769 0.177,-0.523 0.744,-0.804 1.268,-0.629 0.522,0.177 0.804,0.744 0.628,1.267 -0.221,0.652 -0.471,1.301 -0.743,1.93 -0.166,0.376 -0.533,0.601 -0.919,0.601 M 13.445,36.813 c -0.416,0 -0.806,-0.262 -0.947,-0.678 -0.221,-0.648 -0.418,-1.316 -0.585,-1.982 -0.132,-0.536 0.194,-1.078 0.729,-1.211 0.535,-0.136 1.078,0.192 1.213,0.728 0.151,0.611 0.332,1.224 0.535,1.82 0.18,0.521 -0.101,1.091 -0.623,1.269 -0.106,0.036 -0.215,0.054 -0.322,0.054 m 36.316,-5.898 c -0.024,0 -0.052,-10e-4 -0.078,-0.003 -0.551,-0.042 -0.963,-0.523 -0.92,-1.074 0.048,-0.603 0.07,-1.221 0.07,-1.838 0,-0.552 0.448,-1.033 1,-1.033 0.553,0 1,0.415 1,0.968 l 0,0.065 c 0,0.669 -0.025,1.339 -0.076,1.992 -0.041,0.525 -0.478,0.923 -0.996,0.923 M 12.166,29.011 c -0.552,0 -1,-0.436 -1,-0.988 l 0,-0.023 c 0,-0.675 0.028,-1.36 0.081,-2.036 0.042,-0.551 0.534,-0.955 1.075,-0.918 0.55,0.043 0.962,0.524 0.919,1.075 -0.049,0.624 -0.075,1.256 -0.075,1.879 0,0.552 -0.447,1.011 -1,1.011 m 36.937,-5.964 c -0.447,0 -0.856,-0.302 -0.97,-0.756 -0.152,-0.611 -0.335,-1.223 -0.54,-1.819 -0.179,-0.523 0.1,-1.092 0.621,-1.271 0.529,-0.181 1.092,0.099 1.273,0.621 0.222,0.649 0.42,1.316 0.587,1.981 0.134,0.536 -0.191,1.079 -0.728,1.213 -0.081,0.022 -0.162,0.031 -0.243,0.031 M 13.431,21.231 c -0.106,0 -0.215,-0.018 -0.32,-0.054 -0.523,-0.177 -0.804,-0.745 -0.626,-1.268 0.221,-0.654 0.473,-1.303 0.748,-1.929 0.223,-0.506 0.808,-0.738 1.316,-0.514 0.506,0.222 0.737,0.812 0.516,1.317 -0.252,0.574 -0.483,1.169 -0.687,1.768 -0.141,0.417 -0.53,0.68 -0.947,0.68 m 32.472,-5.394 c -0.321,0 -0.637,-0.154 -0.829,-0.439 -0.353,-0.52 -0.733,-1.029 -1.131,-1.513 -0.352,-0.426 -0.289,-1.057 0.137,-1.408 0.427,-0.35 1.056,-0.289 1.408,0.137 0.437,0.532 0.854,1.092 1.242,1.662 0.309,0.458 0.188,1.079 -0.269,1.389 -0.171,0.116 -0.365,0.172 -0.558,0.172 m -28.675,-1.52 c -0.223,0 -0.446,-0.073 -0.633,-0.225 -0.428,-0.35 -0.49,-0.979 -0.141,-1.407 0.439,-0.538 0.907,-1.058 1.389,-1.544 0.391,-0.393 1.023,-0.394 1.414,-0.006 0.394,0.389 0.396,1.022 0.006,1.414 -0.437,0.441 -0.86,0.913 -1.261,1.401 -0.196,0.242 -0.484,0.367 -0.774,0.367 m 23.082,-4.03 c -0.188,0 -0.377,-0.053 -0.546,-0.162 C 39.241,9.783 38.696,9.469 38.145,9.192 37.652,8.944 37.454,8.341 37.703,7.848 37.951,7.355 38.55,7.156 39.045,7.406 c 0.617,0.31 1.227,0.662 1.813,1.044 0.463,0.301 0.594,0.921 0.292,1.384 -0.193,0.293 -0.513,0.453 -0.84,0.453 M 23.328,9.338 c -0.365,0 -0.715,-0.199 -0.893,-0.545 -0.25,-0.493 -0.056,-1.095 0.436,-1.346 0.625,-0.318 1.27,-0.604 1.917,-0.845 0.522,-0.195 1.094,0.069 1.288,0.586 0.193,0.517 -0.07,1.093 -0.586,1.287 -0.577,0.216 -1.153,0.469 -1.708,0.753 -0.146,0.074 -0.301,0.11 -0.454,0.11 m 9.606,-1.75 C 32.897,7.588 32.858,7.586 32.819,7.581 32.216,7.511 31.605,7.476 31,7.476 c -0.552,0 -1.021,-0.448 -1.021,-1 0,-0.552 0.425,-1 0.977,-1 l 0.044,0 c 0.681,0 1.371,0.04 2.048,0.119 0.549,0.063 0.942,0.56 0.878,1.108 -0.058,0.51 -0.491,0.885 -0.992,0.885" /><path
     id="XMLID_105_"
     style="fill:#ffffff;fill-opacity:0.94117647"
     d="m 31.009,41.757 c -0.6,0 -0.987,-0.388 -0.987,-0.987 l 0,-1.406 c -2.051,-0.282 -3.32,-0.62 -5.047,-2.005 l 0,1.316 c 0,0.6 -0.389,0.987 -0.988,0.987 -0.599,0 -0.986,-0.388 -0.986,-0.987 l 0,-6.169 c 0,-0.6 0.388,-0.987 0.986,-0.987 0.6,0 0.988,0.387 0.988,0.987 l 0,2.243 c 1.055,1.146 1.844,1.565 3.615,2.241 0.432,0.164 0.912,0.291 1.432,0.38 l 0,-9.564 c -1.915,-0.532 -3.365,-1.038 -4.316,-1.509 -1.052,-0.52 -1.877,-1.176 -2.453,-1.952 -0.593,-0.798 -0.894,-1.729 -0.894,-2.766 0,-1.956 0.656,-3.544 1.95,-4.721 1.231,-1.119 3.152,-1.707 5.713,-1.75 l 0,-1.288 c 0,-0.599 0.388,-0.987 0.987,-0.987 0.599,0 0.986,0.388 0.986,0.987 l 0,1.429 c 1.815,0.337 3.37,0.964 4.629,1.866 0.327,0.234 0.174,0.44 0.402,0.618 l -0.001,-1.315 c 0,-0.6 0.388,-0.987 0.987,-0.987 0.6,0 0.987,0.387 0.987,0.987 l 0,6.169 c 0,0.6 -0.388,0.987 -0.987,0.987 -0.6,0 -0.987,-0.387 -0.987,-0.987 l 0,-2.082 c -1.114,-1.232 -2.085,-2.2 -3.739,-2.877 -0.404,-0.174 -0.837,-0.307 -1.291,-0.396 l 0,8.936 c 0.308,0.082 0.816,0.216 1.526,0.401 1.229,0.321 2.364,0.737 3.375,1.237 1.051,0.52 1.876,1.176 2.452,1.952 0.593,0.8 0.894,1.763 0.894,2.863 0,2.094 -0.748,3.785 -2.223,5.025 -1.413,1.188 -3.438,1.806 -6.024,1.837 l 0,1.288 c 0,0.598 -0.387,0.986 -0.986,0.986 m -3.892,-4.308 c 0.165,0.08 0.331,0.155 0.498,0.226 -0.169,-0.073 -0.335,-0.149 -0.498,-0.226 m 4.878,-9.105 0,9.165 c 2.024,-0.029 3.591,-0.478 4.658,-1.334 1.087,-0.871 1.615,-1.971 1.615,-3.36 0,-0.729 -0.222,-1.344 -0.678,-1.885 -0.479,-0.567 -1.075,-1.014 -1.771,-1.327 -0.742,-0.334 -1.499,-0.61 -2.25,-0.819 l -1.574,-0.44 z m 5.739,8.207 c -0.141,0.14 -0.294,0.274 -0.455,0.403 -0.24,0.193 -0.5,0.368 -0.779,0.525 0.318,-0.176 0.61,-0.376 0.875,-0.6 0.127,-0.106 0.246,-0.215 0.359,-0.328 M 30.021,17.083 c -1.921,0.04 -3.357,0.456 -4.272,1.24 -0.952,0.817 -1.416,1.786 -1.416,2.965 0,0.73 0.222,1.346 0.678,1.885 0.479,0.568 1.075,1.016 1.771,1.328 0.742,0.335 1.451,0.6 2.108,0.787 0.41,0.117 0.788,0.228 1.132,0.329 l 0,-8.534 z" /><g
     id="g18" /><g
     id="g20" /><g
     id="g22" /><g
     id="g24" /><g
     id="g26" /><g
     id="g28" /><g
     id="g30" /><g
     id="g32" /><g
     id="g34" /><g
     id="g36" /><g
     id="g38" /><g
     id="g40" /><g
     id="g42" /><g
     id="g44" /><g
     id="g46" /></svg>