<?xml version="1.0" encoding="UTF-8" standalone="no"?>
<svg
   xmlns:dc="http://purl.org/dc/elements/1.1/"
   xmlns:cc="http://creativecommons.org/ns#"
   xmlns:rdf="http://www.w3.org/1999/02/22-rdf-syntax-ns#"
   xmlns:svg="http://www.w3.org/2000/svg"
   xmlns="http://www.w3.org/2000/svg"
   xml:space="preserve"
   style="enable-background:new 0 0 58 58;"
   viewBox="0 0 58 58"
   y="0px"
   x="0px"
   id="Capa_1"
   version="1.1"><metadata
     id="metadata51"><rdf:RDF><cc:Work
         rdf:about=""><dc:format>image/svg+xml</dc:format><dc:type
           rdf:resource="http://purl.org/dc/dcmitype/StillImage" /><dc:title></dc:title></cc:Work></rdf:RDF></metadata><defs
     id="defs49" /><rect
     x="28"
     y="17"
     style="fill:#607d8f;fill-opacity:0.94117647"
     width="2"
     height="24"
     id="rect5" /><polygon
     style="fill:#607d8f;fill-opacity:0.94117647"
     points="50,30 8,30 8,41 6,41 6,28 52,28 52,41 50,41 "
     id="polygon7" /><path
     style="fill:#f2f2f2;fill-opacity:0.94117647;stroke:#607d8f;stroke-opacity:0.94117647;stroke-width:0.2;stroke-miterlimit:4;stroke-dasharray:none"
     d="m 7,55 0,0 C 3.134,55 0,51.866 0,48 l 0,0 c 0,-3.866 3.134,-7 7,-7 l 0,0 c 3.866,0 7,3.134 7,7 l 0,0 c 0,3.866 -3.134,7 -7,7 z"
     id="path9" /><path
     style="fill:#f2f2f2;fill-opacity:0.94117647;stroke-width:0.2;stroke-miterlimit:4;stroke-dasharray:none;stroke:#607d8f;stroke-opacity:0.94117647"
     d="m 51,55 0,0 c -3.866,0 -7,-3.134 -7,-7 l 0,0 c 0,-3.866 3.134,-7 7,-7 l 0,0 c 3.866,0 7,3.134 7,7 l 0,0 c 0,3.866 -3.134,7 -7,7 z"
     id="path11" /><path
     style="fill:#f2f2f2;fill-opacity:0.94117647;stroke:#607d8f;stroke-opacity:0.94117647;stroke-width:0.2;stroke-miterlimit:4;stroke-dasharray:none"
     d="m 29,55 0,0 c -3.866,0 -7,-3.134 -7,-7 l 0,0 c 0,-3.866 3.134,-7 7,-7 l 0,0 c 3.866,0 7,3.134 7,7 l 0,0 c 0,3.866 -3.134,7 -7,7 z"
     id="path13" /><path
     style="fill:#ececec;fill-opacity:0.94117647;stroke:#607d8f;stroke-opacity:0.94117647;stroke-width:0.2;stroke-miterlimit:4;stroke-dasharray:none"
     d="m 29,17 0,0 c -3.866,0 -7,-3.134 -7,-7 l 0,0 c 0,-3.866 3.134,-7 7,-7 l 0,0 c 3.866,0 7,3.134 7,7 l 0,0 c 0,3.866 -3.134,7 -7,7 z"
     id="path15" /><g
     id="g17" /><g
     id="g19" /><g
     id="g21" /><g
     id="g23" /><g
     id="g25" /><g
     id="g27" /><g
     id="g29" /><g
     id="g31" /><g
     id="g33" /><g
     id="g35" /><g
     id="g37" /><g
     id="g39" /><g
     id="g41" /><g
     id="g43" /><g
     id="g45" /></svg>