<?xml version="1.0" encoding="UTF-8" standalone="no"?>
<svg
   xmlns:dc="http://purl.org/dc/elements/1.1/"
   xmlns:cc="http://creativecommons.org/ns#"
   xmlns:rdf="http://www.w3.org/1999/02/22-rdf-syntax-ns#"
   xmlns:svg="http://www.w3.org/2000/svg"
   xmlns="http://www.w3.org/2000/svg"
   xml:space="preserve"
   style="enable-background:new 0 0 60 60;"
   viewBox="0 0 60 60"
   y="0px"
   x="0px"
   id="Capa_1"
   version="1.1"><metadata
     id="metadata73"><rdf:RDF><cc:Work
         rdf:about=""><dc:format>image/svg+xml</dc:format><dc:type
           rdf:resource="http://purl.org/dc/dcmitype/StillImage" /><dc:title></dc:title></cc:Work></rdf:RDF></metadata><defs
     id="defs71" /><g
     style="fill:#607d8f;fill-opacity:0.94117647"
     id="g5"><path
       style="fill:#607d8f;fill-opacity:0.94117647"
       d="m 18.306,33.28 -5.013,5.013 c -0.391,0.391 -0.391,1.023 0,1.414 C 13.488,39.902 13.744,40 14,40 c 0.256,0 0.512,-0.098 0.707,-0.293 l 5.013,-5.013 c 0.391,-0.391 0.391,-1.023 0,-1.414 -0.391,-0.391 -1.024,-0.39 -1.414,0 z"
       id="path7" /><path
       style="fill:#607d8f;fill-opacity:0.94117647"
       d="m 27.694,33.28 c -0.391,-0.391 -1.023,-0.391 -1.414,0 -0.391,0.391 -0.391,1.023 0,1.414 l 6.025,6.025 c 0.195,0.195 0.451,0.293 0.707,0.293 0.256,0 0.512,-0.098 0.707,-0.293 0.391,-0.391 0.391,-1.023 0,-1.414 L 27.694,33.28 Z"
       id="path9" /><path
       style="fill:#607d8f;fill-opacity:0.94117647"
       d="m 50.707,30.293 c -0.391,-0.391 -1.023,-0.391 -1.414,0 l -10,10 c -0.391,0.391 -0.391,1.023 0,1.414 C 39.488,41.902 39.744,42 40,42 c 0.256,0 0.512,-0.098 0.707,-0.293 l 10,-10 c 0.391,-0.391 0.391,-1.023 0,-1.414 z"
       id="path11" /></g><path
     style="fill:#607d8f;fill-opacity:0.94117647"
     d="M 3,60 C 2.447,60 2,59.553 2,59 L 2,1 C 2,0.447 2.447,0 3,0 3.553,0 4,0.447 4,1 l 0,58 c 0,0.553 -0.447,1 -1,1 z"
     id="path13" /><path
     style="fill:#607d8f;fill-opacity:0.94117647"
     d="M 59,58 1,58 C 0.447,58 0,57.553 0,57 0,56.447 0.447,56 1,56 l 58,0 c 0.553,0 1,0.447 1,1 0,0.553 -0.447,1 -1,1 z"
     id="path15" /><path
     style="fill:#607d8f;fill-opacity:0.94117647"
     d="M 9,29 7,29 C 6.447,29 6,28.553 6,28 6,27.447 6.447,27 7,27 l 2,0 c 0.553,0 1,0.447 1,1 0,0.553 -0.447,1 -1,1 z"
     id="path17" /><path
     style="fill:#607d8f;fill-opacity:0.94117647"
     d="M 9,25 7,25 C 6.447,25 6,24.553 6,24 6,23.447 6.447,23 7,23 l 2,0 c 0.553,0 1,0.447 1,1 0,0.553 -0.447,1 -1,1 z"
     id="path19" /><path
     style="fill:#607d8f;fill-opacity:0.94117647"
     d="M 9,21 7,21 C 6.447,21 6,20.553 6,20 6,19.447 6.447,19 7,19 l 2,0 c 0.553,0 1,0.447 1,1 0,0.553 -0.447,1 -1,1 z"
     id="path21" /><path
     style="fill:#607d8f;fill-opacity:0.94117647"
     d="M 9,17 7,17 C 6.447,17 6,16.553 6,16 6,15.447 6.447,15 7,15 l 2,0 c 0.553,0 1,0.447 1,1 0,0.553 -0.447,1 -1,1 z"
     id="path23" /><path
     style="fill:#607d8f;fill-opacity:0.94117647"
     d="M 9,13 7,13 C 6.447,13 6,12.553 6,12 6,11.447 6.447,11 7,11 l 2,0 c 0.553,0 1,0.447 1,1 0,0.553 -0.447,1 -1,1 z"
     id="path25" /><path
     style="fill:#607d8f;fill-opacity:0.94117647"
     d="M 9,9 7,9 C 6.447,9 6,8.553 6,8 6,7.447 6.447,7 7,7 l 2,0 c 0.553,0 1,0.447 1,1 0,0.553 -0.447,1 -1,1 z"
     id="path27" /><path
     style="fill:#607d8f;fill-opacity:0.94117647"
     d="M 9,5 7,5 C 6.447,5 6,4.553 6,4 6,3.447 6.447,3 7,3 l 2,0 c 0.553,0 1,0.447 1,1 0,0.553 -0.447,1 -1,1 z"
     id="path29" /><circle
     style="fill:#f2f2f2;fill-opacity:0.94117647;stroke:#607d8f;stroke-opacity:0.94117647;stroke-width:0.2;stroke-miterlimit:4;stroke-dasharray:none"
     cx="11.012"
     cy="42.987999"
     r="5"
     id="circle31" /><circle
     style="fill:#f2f2f2;fill-opacity:0.94117647;stroke:#607d8f;stroke-opacity:0.94117647;stroke-width:0.2;stroke-miterlimit:4;stroke-dasharray:none"
     cx="23"
     cy="31"
     r="5"
     id="circle33" /><circle
     style="fill:#f2f2f2;fill-opacity:0.94117647;stroke:#607d8f;stroke-opacity:0.94117647;stroke-width:0.2;stroke-miterlimit:4;stroke-dasharray:none"
     cx="54"
     cy="28"
     r="5"
     id="circle35" /><circle
     style="fill:#f2f2f2;fill-opacity:0.94117647;stroke:#607d8f;stroke-opacity:0.94117647;stroke-width:0.2;stroke-miterlimit:4;stroke-dasharray:none"
     cx="36"
     cy="44"
     r="5"
     id="circle37" /><g
     id="g39" /><g
     id="g41" /><g
     id="g43" /><g
     id="g45" /><g
     id="g47" /><g
     id="g49" /><g
     id="g51" /><g
     id="g53" /><g
     id="g55" /><g
     id="g57" /><g
     id="g59" /><g
     id="g61" /><g
     id="g63" /><g
     id="g65" /><g
     id="g67" /></svg>