<?xml version="1.0" encoding="UTF-8" standalone="no"?>
<!-- Generator: Adobe Illustrator 18.0.0, SVG Export Plug-In . SVG Version: 6.00 Build 0)  -->

<svg
   xmlns:dc="http://purl.org/dc/elements/1.1/"
   xmlns:cc="http://creativecommons.org/ns#"
   xmlns:rdf="http://www.w3.org/1999/02/22-rdf-syntax-ns#"
   xmlns:svg="http://www.w3.org/2000/svg"
   xmlns="http://www.w3.org/2000/svg"
   xmlns:sodipodi="http://sodipodi.sourceforge.net/DTD/sodipodi-0.dtd"
   xmlns:inkscape="http://www.inkscape.org/namespaces/inkscape"
   version="1.1"
   id="Capa_1"
   x="0px"
   y="0px"
   viewBox="0 0 58 58"
   style="enable-background:new 0 0 58 58;"
   xml:space="preserve"
   inkscape:version="0.91 r13725"
   sodipodi:docname="justice.svg"><metadata
     id="metadata49"><rdf:RDF><cc:Work
         rdf:about=""><dc:format>image/svg+xml</dc:format><dc:type
           rdf:resource="http://purl.org/dc/dcmitype/StillImage" /></cc:Work></rdf:RDF></metadata><defs
     id="defs47" /><sodipodi:namedview
     pagecolor="#ffffff"
     bordercolor="#666666"
     borderopacity="1"
     objecttolerance="10"
     gridtolerance="10"
     guidetolerance="10"
     inkscape:pageopacity="0"
     inkscape:pageshadow="2"
     inkscape:window-width="1920"
     inkscape:window-height="1017"
     id="namedview45"
     showgrid="false"
     inkscape:zoom="11.508772"
     inkscape:cx="29"
     inkscape:cy="29"
     inkscape:window-x="0"
     inkscape:window-y="30"
     inkscape:window-maximized="1"
     inkscape:current-layer="Capa_1" /><g
     id="g3"
     style="fill:#607d8f;fill-opacity:0.94117647"><path
       style="fill:#607d8f;fill-opacity:0.94117647"
       d="M22.631,12.348l-1.078-1.078c-0.483-0.483-0.483-1.267,0-1.75l8.856-8.856   c0.483-0.483,1.267-0.483,1.75,0l1.078,1.078c0.483,0.483,0.483,1.267,0,1.75l-8.856,8.856   C23.898,12.831,23.114,12.831,22.631,12.348z"
       id="path5" /><path
       style="fill:#607d8f;fill-opacity:0.94117647"
       d="M42.43,32.147l-1.078-1.078c-0.483-0.483-0.483-1.267,0-1.75l8.856-8.856   c0.483-0.483,1.267-0.483,1.75,0l1.078,1.078c0.483,0.483,0.483,1.267,0,1.75l-8.856,8.856C43.697,32.63,42.913,32.63,42.43,32.147   z"
       id="path7" /><path
       style="fill:#607d8f;fill-opacity:0.94117647"
       d="M50.208,18.712l-1.246-1.246c-0.387-0.387-1.023-0.401-1.406-0.009   c-0.39,0.399-1.029,0.402-1.423,0.009l-9.899-9.899c-0.387-0.387-0.401-1.023-0.009-1.405c0.399-0.39,0.402-1.03,0.009-1.423   l-1.246-1.246c-0.483-0.483-1.267-0.483-1.75,0l-8.856,8.856c-0.483,0.483-0.483,1.267,0,1.75l1.246,1.246   c0.387,0.387,1.023,0.401,1.405,0.009c0.39-0.399,1.03-0.402,1.423-0.009l1.596,1.596c0.68,0.68,0.68,1.784,0,2.464l-7.96,7.96   l-1.414-1.414c-0.781-0.781-2.047-0.781-2.828,0c-0.781,0.781-0.781,2.047,0,2.828l1.414,1.414l-9.775,9.775   c-0.656,0.656-1.479,1.122-2.379,1.347l-2.905,0.726c-0.9,0.225-1.723,0.691-2.379,1.347L1.5,43.714C0.54,44.675,0,45.977,0,47.336   c0,1.358,0.54,2.661,1.5,3.621L2.743,52.2c0.96,0.96,2.263,1.5,3.621,1.5s2.661-0.54,3.621-1.5l0.325-0.325   c0.656-0.656,1.122-1.479,1.347-2.379l0.726-2.905c0.225-0.9,0.691-1.723,1.347-2.379l9.775-9.775l1.414,1.414   c0.781,0.781,2.047,0.781,2.828,0c0.781-0.781,0.781-2.047,0-2.828l-1.414-1.414l7.96-7.96c0.68-0.68,1.784-0.68,2.464,0   l1.596,1.596c0.387,0.387,0.401,1.023,0.009,1.406c-0.399,0.39-0.402,1.029-0.009,1.423l1.246,1.246   c0.483,0.483,1.267,0.483,1.75,0l8.856-8.856C50.691,19.979,50.691,19.195,50.208,18.712z"
       id="path9" /><path
       style="fill:#607d8f;fill-opacity:0.94117647"
       d="M58,57.7H37v0c0-3.314,2.686-6,6-6h9C55.314,51.7,58,54.386,58,57.7L58,57.7z"
       id="path11" /><path
       style="fill:#607d8f;fill-opacity:0.94117647"
       d="M54,51.7H41c-0.552,0-1-0.447-1-1s0.448-1,1-1h13c0.552,0,1,0.447,1,1S54.552,51.7,54,51.7z"
       id="path13" /></g><g
     id="g15" /><g
     id="g17" /><g
     id="g19" /><g
     id="g21" /><g
     id="g23" /><g
     id="g25" /><g
     id="g27" /><g
     id="g29" /><g
     id="g31" /><g
     id="g33" /><g
     id="g35" /><g
     id="g37" /><g
     id="g39" /><g
     id="g41" /><g
     id="g43" /></svg>