<?xml version="1.0" encoding="UTF-8" standalone="no"?>
<svg
   xmlns:dc="http://purl.org/dc/elements/1.1/"
   xmlns:cc="http://creativecommons.org/ns#"
   xmlns:rdf="http://www.w3.org/1999/02/22-rdf-syntax-ns#"
   xmlns:svg="http://www.w3.org/2000/svg"
   xmlns="http://www.w3.org/2000/svg"
   xml:space="preserve"
   style="enable-background:new 0 0 60.023 60.023;"
   viewBox="0 0 60.023 60.023"
   y="0px"
   x="0px"
   id="Capa_1"
   version="1.1"><metadata
     id="metadata53"><rdf:RDF><cc:Work
         rdf:about=""><dc:format>image/svg+xml</dc:format><dc:type
           rdf:resource="http://purl.org/dc/dcmitype/StillImage" /><dc:title></dc:title></cc:Work></rdf:RDF></metadata><defs
     id="defs51" /><path
     id="XMLID_127_"
     style="fill:#607d8f;fill-opacity:0.94117647"
     d="m 30.028,45.512 c -0.553,0 -1,-0.447 -1,-1 l 0,-26 c 0,-0.553 0.447,-1 1,-1 0.553,0 1,0.447 1,1 l 0,26 c 0,0.553 -0.447,1 -1,1" /><path
     id="XMLID_126_"
     style="fill:#607d8f;fill-opacity:0.94117647"
     d="m 30.028,9.512 c -0.553,0 -1,-0.447 -1,-1 l 0,-4 c 0,-0.553 0.447,-1 1,-1 0.553,0 1,0.447 1,1 l 0,4 c 0,0.553 -0.447,1 -1,1" /><path
     id="XMLID_125_"
     style="fill:#607d8f;fill-opacity:0.94117647"
     d="m 6.028,24.512 c -0.397,0 -0.773,-0.237 -0.929,-0.629 -0.205,-0.513 0.045,-1.095 0.558,-1.3 l 19.525,-7.81 c 0.508,-0.205 1.095,0.044 1.3,0.557 0.205,0.513 -0.045,1.095 -0.558,1.3 L 6.399,24.441 C 6.278,24.49 6.152,24.512 6.028,24.512" /><path
     id="XMLID_124_"
     style="fill:#607d8f;fill-opacity:0.94117647"
     d="m 34.775,13.014 c -0.385,0 -0.751,-0.222 -0.916,-0.596 -0.223,-0.506 0.006,-1.095 0.511,-1.319 L 53.624,2.597 c 0.509,-0.222 1.098,0.006 1.319,0.511 0.223,0.506 -0.006,1.095 -0.511,1.319 l -19.254,8.502 c -0.132,0.058 -0.268,0.085 -0.403,0.085" /><path
     id="XMLID_123_"
     style="fill:#607d8f;fill-opacity:0.94117647"
     d="m 6.028,28.512 c -0.553,0 -1,-0.447 -1,-1 l 0,-4 c 0,-0.553 0.447,-1 1,-1 0.553,0 1,0.447 1,1 l 0,4 c 0,0.553 -0.447,1 -1,1" /><path
     id="XMLID_122_"
     style="fill:#607d8f;fill-opacity:0.94117647"
     d="m 54.028,8.512 c -0.553,0 -1,-0.447 -1,-1 l 0,-4 c 0,-0.553 0.447,-1 1,-1 0.553,0 1,0.447 1,1 l 0,4 c 0,0.553 -0.447,1 -1,1" /><path
     id="XMLID_119_"
     style="fill:#607d8f;fill-opacity:0.94117647"
     d="m 60.023,18.512 -11.99,0 0,-1 c 0,-1.058 0.271,-2.063 0.806,-2.989 l 5.189,-8.989 5.189,8.989 c 0.534,0.926 0.806,1.931 0.806,2.989 l 0,1 z m -9.862,-2 7.734,0 c -0.09,-0.342 -0.227,-0.672 -0.41,-0.989 l -3.457,-5.989 -3.457,5.989 c -0.183,0.317 -0.32,0.647 -0.41,0.989" /><path
     id="XMLID_118_"
     style="fill:#607d8f;fill-opacity:0.94117647"
     d="m 49.033,17.512 c 0,2.608 2.081,5 4.995,5 2.914,0 4.995,-2.392 4.995,-5 l -9.99,0 z" /><path
     id="XMLID_115_"
     style="fill:#f2f2f2;stroke:#607d8f;stroke-opacity:0.94117647;stroke-width:0.2;stroke-miterlimit:4;stroke-dasharray:none"
     d="m 54.028,23.512 c -3.306,0 -5.995,-2.691 -5.995,-6 l 0,-1 11.989,0 0,1 c 0,3.309 -2.688,6 -5.994,6 m -3.861,-5 c 0.423,1.58 1.82,3 3.861,3 2.041,0 3.438,-1.42 3.861,-3 l -7.722,0 z" /><path
     id="XMLID_112_"
     style="fill:#607d8f;fill-opacity:0.94117647"
     d="M 12.057,38.512 0,38.512 0.044,37.47 c 0.041,-0.977 0.309,-1.899 0.795,-2.742 l 5.19,-8.989 5.189,8.989 c 0.485,0.843 0.754,1.765 0.795,2.742 l 0.044,1.042 z m -9.832,-2 7.607,0 C 9.745,36.241 9.631,35.979 9.485,35.728 L 6.028,29.739 2.571,35.728 C 2.426,35.979 2.31,36.241 2.225,36.512" /><path
     id="XMLID_111_"
     style="fill:#607d8f;fill-opacity:0.94117647"
     d="m 1.043,37.512 c -0.111,2.686 1.995,5.205 4.985,5.205 2.99,0 5.097,-2.519 4.985,-5.205 l -9.97,0 z" /><path
     id="XMLID_108_"
     style="fill:#f2f2f2;stroke:#607d8f;stroke-opacity:0.94117647;stroke-width:0.2;stroke-miterlimit:4;stroke-dasharray:none"
     d="M 6.028,43.717 C 4.38,43.717 2.852,43.07 1.725,41.893 0.588,40.708 -0.025,39.096 0.043,37.47 l 0.04,-0.958 11.889,0 0.04,0.958 c 0.068,1.626 -0.545,3.238 -1.682,4.423 -1.126,1.177 -2.654,1.824 -4.302,1.824 M 2.12,38.512 c 0.151,0.742 0.514,1.439 1.049,1.997 0.747,0.779 1.763,1.208 2.859,1.208 1.097,0 2.113,-0.429 2.859,-1.208 0.535,-0.558 0.897,-1.255 1.049,-1.997 l -7.816,0 z" /><path
     id="XMLID_107_"
     style="fill:#607d8f;fill-opacity:0.94117647"
     d="m 45.028,57.512 -30,0 c 0,-4.418 3.582,-8 8,-8 l 14,0 c 4.418,0 8,3.582 8,8" /><rect
     id="XMLID_106_"
     x="24.028"
     y="44.512001"
     style="fill:#607d8f;fill-opacity:0.94117647"
     width="12"
     height="5" /><path
     id="XMLID_102_"
     style="fill:#f2f2f2;stroke-width:0.2;stroke-miterlimit:4;stroke-dasharray:none;stroke:#607d8f;stroke-opacity:0.94117647"
     d="m 35.028,13.512 c 0,2.761 -2.239,5 -5,5 -2.761,0 -5,-2.239 -5,-5 0,-2.761 2.239,-5 5,-5 2.761,0 5,2.239 5,5" /><g
     id="g19" /><g
     id="g21" /><g
     id="g23" /><g
     id="g25" /><g
     id="g27" /><g
     id="g29" /><g
     id="g31" /><g
     id="g33" /><g
     id="g35" /><g
     id="g37" /><g
     id="g39" /><g
     id="g41" /><g
     id="g43" /><g
     id="g45" /><g
     id="g47" /></svg>