<?xml version="1.0" encoding="UTF-8" standalone="no"?>
<svg
   xmlns:dc="http://purl.org/dc/elements/1.1/"
   xmlns:cc="http://creativecommons.org/ns#"
   xmlns:rdf="http://www.w3.org/1999/02/22-rdf-syntax-ns#"
   xmlns:svg="http://www.w3.org/2000/svg"
   xmlns="http://www.w3.org/2000/svg"
   xml:space="preserve"
   style="enable-background:new 0 0 58 58;"
   viewBox="0 0 58 58"
   y="0px"
   x="0px"
   id="Capa_1"
   version="1.1"><metadata
     id="metadata67"><rdf:RDF><cc:Work
         rdf:about=""><dc:format>image/svg+xml</dc:format><dc:type
           rdf:resource="http://purl.org/dc/dcmitype/StillImage" /><dc:title></dc:title></cc:Work></rdf:RDF></metadata><defs
     id="defs65" /><path
     style="fill:#607d8f;fill-opacity:0.94117647"
     d="m 8,24.5 c -0.256,0 -0.512,-0.098 -0.707,-0.293 -0.391,-0.391 -0.391,-1.023 0,-1.414 l 17,-17 c 0.391,-0.391 1.023,-0.391 1.414,0 0.391,0.391 0.391,1.023 0,1.414 l -17,17 C 8.512,24.402 8.256,24.5 8,24.5 Z"
     id="path5" /><path
     style="fill:#607d8f;fill-opacity:0.94117647"
     d="m 50,24.5 c -0.256,0 -0.512,-0.098 -0.707,-0.293 l -17,-17 c -0.391,-0.391 -0.391,-1.023 0,-1.414 0.391,-0.391 1.023,-0.391 1.414,0 l 17,17 c 0.391,0.391 0.391,1.023 0,1.414 C 50.512,24.402 50.256,24.5 50,24.5 Z"
     id="path7" /><circle
     style="fill:#f2f2f2;stroke:#607d8f;stroke-opacity:0.94117647;stroke-width:0.2;stroke-miterlimit:4;stroke-dasharray:none"
     cx="29"
     cy="6.5"
     r="4"
     id="circle9" /><rect
     y="23.5"
     style="fill:#607d8f;fill-opacity:0.94117647"
     width="58"
     height="32"
     id="rect11"
     x="0" /><path
     style="fill:#ffffff"
     d="m 11,50.5 c -2.757,0 -5,-2.243 -5,-5 l 0,-12 c 0,-2.757 2.243,-5 5,-5 2.757,0 5,2.243 5,5 l 0,12 c 0,2.757 -2.243,5 -5,5 z m 0,-20 c -1.654,0 -3,1.346 -3,3 l 0,12 c 0,1.654 1.346,3 3,3 1.654,0 3,-1.346 3,-3 l 0,-12 c 0,-1.654 -1.346,-3 -3,-3 z"
     id="path13" /><path
     style="fill:#ffffff"
     d="m 23,43.5 c -2.757,0 -5,-2.243 -5,-5 l 0,-5 c 0,-2.757 2.243,-5 5,-5 2.757,0 5,2.243 5,5 l 0,5 c 0,2.757 -2.243,5 -5,5 z m 0,-13 c -1.654,0 -3,1.346 -3,3 l 0,5 c 0,1.654 1.346,3 3,3 1.654,0 3,-1.346 3,-3 l 0,-5 c 0,-1.654 -1.346,-3 -3,-3 z"
     id="path15" /><path
     style="fill:#ffffff"
     d="m 31,50.5 c -0.552,0 -1,-0.447 -1,-1 l 0,-20 c 0,-0.553 0.448,-1 1,-1 0.552,0 1,0.447 1,1 l 0,20 c 0,0.553 -0.448,1 -1,1 z"
     id="path17" /><path
     style="fill:#ffffff"
     d="m 51,50.5 c -0.552,0 -1,-0.447 -1,-1 l 0,-20 c 0,-0.553 0.448,-1 1,-1 0.552,0 1,0.447 1,1 l 0,20 c 0,0.553 -0.448,1 -1,1 z"
     id="path19" /><path
     style="fill:#ffffff"
     d="m 43,50.5 c -0.552,0 -1,-0.447 -1,-1 l 0,-20 c 0,-0.553 0.448,-1 1,-1 0.552,0 1,0.447 1,1 l 0,20 c 0,0.553 -0.448,1 -1,1 z"
     id="path21" /><path
     style="fill:#ffffff"
     d="m 19,50.5 c -0.552,0 -1,-0.447 -1,-1 l 0,-11 c 0,-0.553 0.448,-1 1,-1 0.552,0 1,0.447 1,1 l 0,11 c 0,0.553 -0.448,1 -1,1 z"
     id="path23" /><path
     style="fill:#ffffff"
     d="m 39,40.5 -8,0 c -0.552,0 -1,-0.447 -1,-1 0,-0.553 0.448,-1 1,-1 l 8,0 c 0.552,0 1,0.447 1,1 0,0.553 -0.448,1 -1,1 z"
     id="path25" /><path
     style="fill:#ffffff"
     d="m 39,30.5 -8,0 c -0.552,0 -1,-0.447 -1,-1 0,-0.553 0.448,-1 1,-1 l 8,0 c 0.552,0 1,0.447 1,1 0,0.553 -0.448,1 -1,1 z"
     id="path27" /><path
     style="fill:#ffffff"
     d="m 39,50.5 -8,0 c -0.552,0 -1,-0.447 -1,-1 0,-0.553 0.448,-1 1,-1 l 8,0 c 0.552,0 1,0.447 1,1 0,0.553 -0.448,1 -1,1 z"
     id="path29" /><path
     style="fill:#ffffff"
     d="m 51,50.5 c -0.397,0 -0.772,-0.237 -0.929,-0.629 l -8,-20 c -0.205,-0.513 0.044,-1.095 0.557,-1.3 0.515,-0.205 1.095,0.044 1.3,0.558 l 8,20 c 0.205,0.513 -0.044,1.095 -0.557,1.3 C 51.25,50.478 51.124,50.5 51,50.5 Z"
     id="path31" /><g
     id="g33" /><g
     id="g35" /><g
     id="g37" /><g
     id="g39" /><g
     id="g41" /><g
     id="g43" /><g
     id="g45" /><g
     id="g47" /><g
     id="g49" /><g
     id="g51" /><g
     id="g53" /><g
     id="g55" /><g
     id="g57" /><g
     id="g59" /><g
     id="g61" /><circle
     r="1.5205792"
     cy="6.5"
     cx="29"
     id="path4209"
     style="opacity:0.9;fill:#607d8f;fill-opacity:0.94117647;fill-rule:evenodd;stroke:#607d8f;stroke-width:0.2;stroke-linecap:round;stroke-linejoin:round;stroke-miterlimit:4;stroke-dasharray:none;stroke-dashoffset:0;stroke-opacity:0.94117647" /></svg>