<?xml version="1.0" encoding="UTF-8" standalone="no"?>
<svg
   xmlns:dc="http://purl.org/dc/elements/1.1/"
   xmlns:cc="http://creativecommons.org/ns#"
   xmlns:rdf="http://www.w3.org/1999/02/22-rdf-syntax-ns#"
   xmlns:svg="http://www.w3.org/2000/svg"
   xmlns="http://www.w3.org/2000/svg"
   xml:space="preserve"
   style="enable-background:new 0 0 58 58;"
   viewBox="0 0 58 58"
   y="0px"
   x="0px"
   id="Capa_1"
   version="1.1"><metadata
     id="metadata45"><rdf:RDF><cc:Work
         rdf:about=""><dc:format>image/svg+xml</dc:format><dc:type
           rdf:resource="http://purl.org/dc/dcmitype/StillImage" /><dc:title></dc:title></cc:Work></rdf:RDF></metadata><defs
     id="defs43" /><g
     style="fill:#607d8f;fill-opacity:0.94117647"
     id="g3"><path
       id="path5"
       d="M44.923,29c0,3.334-1.022,6.428-2.767,8.991l9.281,9.281C55.49,42.285,57.923,35.927,57.923,29   s-2.432-13.285-6.485-18.272l-9.281,9.281C43.901,22.572,44.923,25.666,44.923,29z"
       style="fill:#607d8f;fill-opacity:0.94117647" /><path
       id="path7"
       d="M37.914,42.233C35.351,43.978,32.257,45,28.923,45c-7.81,0-14.304-5.599-15.709-13H0.077   C1.578,46.606,13.92,58,28.923,58c6.928,0,13.285-2.432,18.272-6.485L37.914,42.233z"
       style="fill:#607d8f;fill-opacity:0.94117647" /><path
       id="path9"
       d="M13.214,26c1.405-7.401,7.899-13,15.709-13c3.334,0,6.428,1.022,8.991,2.767l9.281-9.281   C42.208,2.432,35.85,0,28.923,0C13.92,0,1.578,11.393,0.077,26H13.214z"
       style="fill:#607d8f;fill-opacity:0.94117647" /></g><g
     id="g11" /><g
     id="g13" /><g
     id="g15" /><g
     id="g17" /><g
     id="g19" /><g
     id="g21" /><g
     id="g23" /><g
     id="g25" /><g
     id="g27" /><g
     id="g29" /><g
     id="g31" /><g
     id="g33" /><g
     id="g35" /><g
     id="g37" /><g
     id="g39" /></svg>