<?xml version="1.0" encoding="UTF-8" standalone="no"?>
<svg
   xmlns:dc="http://purl.org/dc/elements/1.1/"
   xmlns:cc="http://creativecommons.org/ns#"
   xmlns:rdf="http://www.w3.org/1999/02/22-rdf-syntax-ns#"
   xmlns:svg="http://www.w3.org/2000/svg"
   xmlns="http://www.w3.org/2000/svg"
   xml:space="preserve"
   style="enable-background:new 0 0 60 60;"
   viewBox="0 0 60 60"
   y="0px"
   x="0px"
   id="Capa_1"
   version="1.1"><metadata
     id="metadata75"><rdf:RDF><cc:Work
         rdf:about=""><dc:format>image/svg+xml</dc:format><dc:type
           rdf:resource="http://purl.org/dc/dcmitype/StillImage" /><dc:title></dc:title></cc:Work></rdf:RDF></metadata><defs
     id="defs73" /><g
     id="g4221"><rect
       id="rect5"
       height="6"
       width="58"
       style="fill:#607d8f;fill-opacity:0.94117647"
       y="0.5"
       x="1" /><rect
       id="rect7"
       height="42"
       width="54"
       style="fill:#607d8f;fill-opacity:0.94117647"
       y="6.5"
       x="3" /><rect
       id="rect9"
       height="5"
       width="6"
       style="fill:#f2f2f2;stroke:#cccccc;stroke-opacity:1;stroke-width:0.2;stroke-miterlimit:4;stroke-dasharray:none"
       y="36.5"
       x="9" /><rect
       id="rect11"
       height="5"
       width="6"
       style="fill:#f2f2f2;stroke:#cccccc;stroke-opacity:1;stroke-width:0.2;stroke-miterlimit:4;stroke-dasharray:none"
       y="36.5"
       x="18" /><rect
       id="rect13"
       height="5"
       width="6"
       style="fill:#f2f2f2;stroke:#cccccc;stroke-opacity:1;stroke-width:0.2;stroke-miterlimit:4;stroke-dasharray:none"
       y="36.5"
       x="27" /><rect
       id="rect15"
       height="5"
       width="6"
       style="fill:#f2f2f2;stroke:#cccccc;stroke-opacity:1;stroke-width:0.2;stroke-miterlimit:4;stroke-dasharray:none"
       y="36.5"
       x="36" /><rect
       id="rect17"
       height="5"
       width="6"
       style="fill:#f2f2f2;stroke:#cccccc;stroke-opacity:1;stroke-width:0.2;stroke-miterlimit:4;stroke-dasharray:none"
       y="36.5"
       x="45" /><rect
       id="rect19"
       height="5"
       width="6"
       style="fill:#f2f2f2;stroke:#cccccc;stroke-opacity:1;stroke-width:0.2;stroke-miterlimit:4;stroke-dasharray:none"
       y="31.5"
       x="9" /><rect
       id="rect21"
       height="11"
       width="6"
       style="fill:#f2f2f2;stroke:#cccccc;stroke-opacity:1;stroke-width:0.2;stroke-miterlimit:4;stroke-dasharray:none"
       y="25.5"
       x="18" /><rect
       id="rect23"
       height="17"
       width="6"
       style="fill:#f2f2f2;stroke:#cccccc;stroke-opacity:1;stroke-width:0.2;stroke-miterlimit:4;stroke-dasharray:none"
       y="19.5"
       x="27" /><rect
       id="rect25"
       height="10"
       width="6"
       style="fill:#f2f2f2;stroke:#cccccc;stroke-opacity:1;stroke-width:0.2;stroke-miterlimit:4;stroke-dasharray:none"
       y="26.5"
       x="36" /><rect
       id="rect27"
       height="23"
       width="6"
       style="fill:#f2f2f2;stroke:#cccccc;stroke-opacity:1;stroke-width:0.2;stroke-miterlimit:4;stroke-dasharray:none"
       y="13.5"
       x="45" /><path
       id="path29"
       d="m 8,22.5 c -0.256,0 -0.512,-0.098 -0.707,-0.293 -0.391,-0.391 -0.391,-1.023 0,-1.414 l 7,-7 c 0.391,-0.391 1.023,-0.391 1.414,0 0.391,0.391 0.391,1.023 0,1.414 l -7,7 C 8.512,22.402 8.256,22.5 8,22.5 Z"
       style="fill:#ffffff" /><path
       id="path31"
       d="m 15,20.5 c -0.553,0 -1,-0.447 -1,-1 l 0,-5 c 0,-0.553 0.447,-1 1,-1 0.553,0 1,0.447 1,1 l 0,5 c 0,0.553 -0.447,1 -1,1 z"
       style="fill:#ffffff" /><path
       id="path33"
       d="m 15,15.5 -5,0 c -0.553,0 -1,-0.447 -1,-1 0,-0.553 0.447,-1 1,-1 l 5,0 c 0.553,0 1,0.447 1,1 0,0.553 -0.447,1 -1,1 z"
       style="fill:#ffffff" /><path
       id="path35"
       d="m 59,49.5 -58,0 c -0.553,0 -1,-0.447 -1,-1 0,-0.553 0.447,-1 1,-1 l 58,0 c 0.553,0 1,0.447 1,1 0,0.553 -0.447,1 -1,1 z"
       style="fill:#607d8f;fill-opacity:0.94117647" /><path
       id="path37"
       d="m 30,52.5 c -0.553,0 -1,-0.447 -1,-1 l 0,-3 c 0,-0.553 0.447,-1 1,-1 0.553,0 1,0.447 1,1 l 0,3 c 0,0.553 -0.447,1 -1,1 z"
       style="fill:#607d8f;fill-opacity:0.94117647" /><path
       id="path39"
       d="m 30,59.5 c -2.206,0 -4,-1.794 -4,-4 0,-2.206 1.794,-4 4,-4 2.206,0 4,1.794 4,4 0,2.206 -1.794,4 -4,4 z m 0,-6 c -1.103,0 -2,0.897 -2,2 0,1.103 0.897,2 2,2 1.103,0 2,-0.897 2,-2 0,-1.103 -0.897,-2 -2,-2 z"
       style="fill:#607d8f;fill-opacity:0.94117647" /></g><g
     id="g41" /><g
     id="g43" /><g
     id="g45" /><g
     id="g47" /><g
     id="g49" /><g
     id="g51" /><g
     id="g53" /><g
     id="g55" /><g
     id="g57" /><g
     id="g59" /><g
     id="g61" /><g
     id="g63" /><g
     id="g65" /><g
     id="g67" /><g
     id="g69" /></svg>