<?xml version="1.0" encoding="UTF-8" standalone="no"?>
<svg
   xmlns:dc="http://purl.org/dc/elements/1.1/"
   xmlns:cc="http://creativecommons.org/ns#"
   xmlns:rdf="http://www.w3.org/1999/02/22-rdf-syntax-ns#"
   xmlns:svg="http://www.w3.org/2000/svg"
   xmlns="http://www.w3.org/2000/svg"
   xml:space="preserve"
   style="enable-background:new 0 0 59.99 59.99;"
   viewBox="0 0 59.99 59.99"
   y="0px"
   x="0px"
   id="Capa_1"
   version="1.1"><metadata
     id="metadata49"><rdf:RDF><cc:Work
         rdf:about=""><dc:format>image/svg+xml</dc:format><dc:type
           rdf:resource="http://purl.org/dc/dcmitype/StillImage" /><dc:title></dc:title></cc:Work></rdf:RDF></metadata><defs
     id="defs47" /><path
     id="XMLID_148_"
     style="fill:#607d8f;fill-opacity:0.94117647"
     d="m 29.985,51 c -11.579,0 -21,-9.421 -21,-21 0,-11.579 9.421,-21 21,-21 11.579,0 21,9.421 21,21 0,11.579 -9.42,21 -21,21" /><path
     id="XMLID_147_"
     style="fill:#ffffff"
     d="m 29.985,15 c -0.552,0 -1,-0.447 -1,-1 l 0,-2 c 0,-0.553 0.448,-1 1,-1 0.552,0 1,0.447 1,1 l 0,2 c 0,0.553 -0.448,1 -1,1" /><path
     id="XMLID_146_"
     style="fill:#ffffff"
     d="m 29.985,49 c -0.552,0 -1,-0.447 -1,-1 l 0,-2 c 0,-0.553 0.448,-1 1,-1 0.552,0 1,0.447 1,1 l 0,2 c 0,0.553 -0.448,1 -1,1" /><path
     id="XMLID_145_"
     style="fill:#ffffff"
     d="m 47.985,31 -2,0 c -0.552,0 -1,-0.447 -1,-1 0,-0.553 0.448,-1 1,-1 l 2,0 c 0.552,0 1,0.447 1,1 0,0.553 -0.448,1 -1,1" /><path
     id="XMLID_144_"
     style="fill:#ffffff"
     d="m 13.985,31 -2,0 c -0.552,0 -1,-0.447 -1,-1 0,-0.553 0.448,-1 1,-1 l 2,0 c 0.552,0 1,0.447 1,1 0,0.553 -0.448,1 -1,1" /><path
     id="XMLID_141_"
     style="fill:#ffffff"
     d="m 29.985,33 c -2.206,0 -4,-1.794 -4,-4 0,-2.206 1.794,-4 4,-4 2.206,0 4,1.794 4,4 0,2.206 -1.793,4 -4,4 m 0,-6 c -1.103,0 -2,0.897 -2,2 0,1.103 0.897,2 2,2 1.103,0 2,-0.897 2,-2 0,-1.103 -0.897,-2 -2,-2" /><path
     id="XMLID_140_"
     style="fill:#ffffff"
     d="m 29.985,27 c -0.552,0 -1,-0.447 -1,-1 l 0,-6 c 0,-0.553 0.448,-1 1,-1 0.552,0 1,0.447 1,1 l 0,6 c 0,0.553 -0.448,1 -1,1" /><path
     id="XMLID_139_"
     style="fill:#ffffff"
     d="m 18.985,41 c -0.256,0 -0.512,-0.098 -0.707,-0.293 -0.391,-0.391 -0.391,-1.023 0,-1.414 l 8.879,-8.879 c 0.391,-0.391 1.023,-0.391 1.414,0 0.391,0.391 0.391,1.023 0,1.414 l -8.879,8.879 C 19.498,40.902 19.241,41 18.985,41" /><path
     id="XMLID_138_"
     style="fill:#607d8f;fill-opacity:0.94117647"
     d="m 58.985,31 c -0.552,0 -1,-0.447 -1,-1 0,-15.439 -12.561,-28 -28,-28 C 22.768,2 15.91,4.75 10.675,9.742 10.276,10.123 9.642,10.108 9.261,9.709 8.88,9.309 8.895,8.676 9.295,8.295 14.904,2.946 22.253,0 29.985,0 c 16.542,0 30,13.458 30,30 0,0.553 -0.448,1 -1,1" /><path
     id="XMLID_137_"
     style="fill:#607d8f;fill-opacity:0.94117647"
     d="m 17.985,10 -9,0 0,-9 c 0,-0.553 0.448,-1 1,-1 0.552,0 1,0.447 1,1 l 0,7 7,0 c 0.552,0 1,0.447 1,1 0,0.553 -0.448,1 -1,1" /><path
     id="XMLID_105_"
     style="fill:#607d8f;fill-opacity:0.94117647"
     d="m 29.546,59.01 c -0.01,-0.55 0.43,-1.01 0.98,-1.02 0.55,-0.011 1.01,0.43 1.02,0.98 0.01,0.56 -0.43,1.009 -0.98,1.02 l -0.02,0 c -0.541,0 -0.991,-0.43 -1,-0.98 m -2.081,0.88 0,0.009 c -0.55,-0.049 -0.96,-0.529 -0.91,-1.089 0.04,-0.55 0.53,-0.96 1.08,-0.911 0.55,0.051 0.95,0.531 0.91,1.08 -0.04,0.521 -0.48,0.92 -1,0.92 -0.02,0 -0.05,0 -0.08,-0.009 m 5.081,-0.991 c -0.07,-0.54 0.32,-1.04 0.87,-1.109 0.55,-0.07 1.05,0.319 1.11,0.87 0.07,0.55 -0.32,1.05 -0.87,1.12 l 0,-0.01 c -0.04,0.01 -0.08,0.01 -0.12,0.01 -0.501,0 -0.93,-0.37 -0.99,-0.881 m -8.15,0.58 c -0.55,-0.109 -0.9,-0.629 -0.8,-1.169 0.1,-0.55 0.63,-0.9 1.17,-0.8 0.54,0.099 0.9,0.63 0.8,1.17 -0.1,0.48 -0.52,0.81 -0.99,0.81 -0.061,0 -0.12,0 -0.18,-0.011 M 35.515,58.49 c -0.13,-0.54 0.21,-1.08 0.75,-1.2 0.54,-0.12 1.07,0.21 1.2,0.75 0.12,0.54 -0.22,1.08 -0.75,1.2 -0.08,0.02 -0.15,0.02 -0.23,0.02 -0.45,0 -0.87,-0.31 -0.97,-0.77 m -14.139,0.25 c -0.53,-0.16 -0.82,-0.72 -0.67,-1.25 0.16,-0.52 0.72,-0.82 1.25,-0.66 0.53,0.149 0.83,0.71 0.67,1.239 -0.13,0.431 -0.53,0.711 -0.96,0.711 -0.091,0 -0.19,-0.01 -0.29,-0.04 m 17.049,-0.97 c -0.18,-0.53 0.1,-1.1 0.62,-1.27 0.52,-0.181 1.09,0.09 1.27,0.62 0.18,0.52 -0.1,1.09 -0.62,1.27 -0.11,0.03 -0.22,0.049 -0.33,0.049 -0.409,0 -0.799,-0.259 -0.94,-0.669 M 18.456,57.7 c -0.51,-0.221 -0.75,-0.801 -0.53,-1.31 0.21,-0.51 0.79,-0.75 1.3,-0.54 0.51,0.21 0.75,0.799 0.54,1.31 -0.16,0.38 -0.53,0.61 -0.92,0.61 -0.131,0 -0.26,-0.02 -0.39,-0.07 m 22.789,-0.96 c -0.23,-0.5 -0.02,-1.091 0.49,-1.32 0.5,-0.24 1.09,-0.021 1.32,0.479 0.24,0.5 0.02,1.101 -0.48,1.33 -0.14,0.061 -0.28,0.09 -0.42,0.09 -0.38,0 -0.739,-0.21 -0.91,-0.579 M 15.666,56.35 c -0.49,-0.26 -0.67,-0.871 -0.41,-1.35 0.27,-0.49 0.88,-0.67 1.36,-0.4 0.49,0.259 0.67,0.87 0.4,1.35 -0.18,0.34 -0.52,0.529 -0.88,0.529 -0.16,0 -0.32,-0.04 -0.47,-0.129 m 28.279,-0.92 c -0.29,-0.47 -0.13,-1.08 0.34,-1.37 0.48,-0.28 1.09,-0.121 1.37,0.35 0.29,0.47 0.13,1.09 -0.34,1.37 -0.16,0.1 -0.34,0.14 -0.51,0.14 -0.34,0 -0.679,-0.17 -0.86,-0.49 m -30.93,-0.701 c -0.45,-0.319 -0.57,-0.939 -0.25,-1.389 0.31,-0.46 0.93,-0.57 1.39,-0.26 0.45,0.31 0.57,0.94 0.25,1.39 -0.19,0.28 -0.5,0.429 -0.82,0.429 -0.2,0 -0.39,-0.049 -0.57,-0.17 m 33.48,-0.879 c -0.33,-0.44 -0.24,-1.07 0.2,-1.4 0.44,-0.33 1.07,-0.24 1.4,0.21 0.33,0.44 0.24,1.069 -0.21,1.4 -0.17,0.129 -0.38,0.19 -0.59,0.19 -0.31,0 -0.609,-0.13 -0.8,-0.4 m -35.94,-1.01 0,0 c -0.42,-0.361 -0.47,-0.99 -0.11,-1.41 0.36,-0.42 0.99,-0.47 1.41,-0.111 0.42,0.361 0.47,0.991 0.11,1.41 -0.2,0.231 -0.48,0.351 -0.76,0.351 -0.229,0 -0.46,-0.08 -0.65,-0.24 m 38.31,-0.82 c -0.38,-0.411 -0.35,-1.041 0.06,-1.42 l 0,0.009 c 0.4,-0.38 1.04,-0.349 1.41,0.061 0.37,0.399 0.35,1.03 -0.06,1.41 -0.19,0.17 -0.43,0.26 -0.67,0.26 -0.269,0 -0.539,-0.111 -0.74,-0.32 M 8.305,50.71 c -0.38,-0.4 -0.37,-1.03 0.03,-1.41 0.4,-0.38 1.03,-0.37 1.41,0.03 0.39,0.399 0.37,1.029 -0.03,1.41 -0.19,0.19 -0.44,0.28 -0.69,0.28 -0.26,0 -0.53,-0.1 -0.72,-0.31 m 42.73,-0.76 c -0.41,-0.37 -0.45,-1 -0.08,-1.41 0.36,-0.42 0.99,-0.45 1.41,-0.09 0.41,0.369 0.45,1 0.08,1.409 -0.2,0.231 -0.47,0.341 -0.75,0.341 -0.23,0 -0.469,-0.08 -0.66,-0.25 M 6.275,48.359 C 5.935,47.93 6.015,47.3 6.455,46.96 c 0.44,-0.34 1.06,-0.26 1.4,0.18 0.34,0.429 0.26,1.06 -0.17,1.4 -0.19,0.14 -0.4,0.21 -0.62,0.21 -0.29,0 -0.589,-0.13 -0.79,-0.391 m 46.71,-0.689 c -0.45,-0.32 -0.55,-0.95 -0.23,-1.4 0.32,-0.44 0.95,-0.55 1.4,-0.23 0.45,0.33 0.55,0.95 0.23,1.399 -0.2,0.271 -0.5,0.42 -0.82,0.42 -0.2,0 -0.399,-0.059 -0.58,-0.189 M 4.505,45.819 c -0.29,-0.469 -0.15,-1.079 0.32,-1.38 0.47,-0.29 1.09,-0.149 1.38,0.321 0.29,0.469 0.15,1.09 -0.32,1.38 -0.17,0.1 -0.35,0.15 -0.53,0.15 -0.33,0 -0.66,-0.17 -0.85,-0.471 M 54.695,45.2 c -0.48,-0.27 -0.65,-0.881 -0.37,-1.36 l -0.01,0 c 0.28,-0.481 0.89,-0.651 1.37,-0.38 0.48,0.28 0.65,0.89 0.37,1.37 -0.18,0.319 -0.52,0.5 -0.87,0.5 -0.17,0 -0.34,-0.04 -0.49,-0.13 m -51.69,-2.091 0,0 c -0.24,-0.5 -0.04,-1.099 0.46,-1.339 0.5,-0.24 1.09,-0.041 1.34,0.459 0.24,0.5 0.03,1.101 -0.47,1.34 -0.14,0.071 -0.29,0.101 -0.43,0.101 -0.37,0 -0.73,-0.21 -0.9,-0.561 m 53.13,-0.54 c -0.51,-0.219 -0.74,-0.81 -0.51,-1.319 0.22,-0.5 0.81,-0.73 1.32,-0.51 0.5,0.22 0.73,0.81 0.51,1.32 -0.17,0.37 -0.53,0.6 -0.92,0.6 -0.13,0 -0.27,-0.03 -0.4,-0.091 M 1.796,40.25 c -0.19,-0.521 0.07,-1.09 0.59,-1.28 0.52,-0.19 1.1,0.08 1.28,0.599 0.19,0.521 -0.07,1.091 -0.59,1.281 -0.12,0.04 -0.23,0.06 -0.35,0.06 -0.401,0 -0.79,-0.25 -0.93,-0.66 m 55.5,-0.44 c -0.52,-0.17 -0.81,-0.741 -0.64,-1.26 0.16,-0.53 0.73,-0.821 1.25,-0.651 0.53,0.17 0.82,0.731 0.65,1.261 -0.14,0.42 -0.53,0.69 -0.95,0.69 -0.101,0 -0.21,-0.01 -0.31,-0.04 M 0.885,37.29 c -0.14,-0.54 0.19,-1.08 0.72,-1.21 0.54,-0.141 1.08,0.19 1.22,0.72 0.13,0.54 -0.2,1.08 -0.73,1.22 -0.08,0.02 -0.16,0.03 -0.24,0.03 -0.45,0 -0.86,-0.31 -0.97,-0.76 m 57.281,-0.36 c -0.54,-0.111 -0.89,-0.64 -0.77,-1.18 0.11,-0.54 0.64,-0.891 1.18,-0.771 0.54,0.111 0.89,0.641 0.77,1.181 -0.09,0.47 -0.51,0.79 -0.97,0.79 -0.071,0 -0.141,0 -0.21,-0.02 M 0.285,34.24 c -0.08,-0.54 0.3,-1.051 0.85,-1.131 0.54,-0.079 1.05,0.301 1.13,0.851 0.08,0.55 -0.3,1.05 -0.85,1.13 -0.05,0.01 -0.09,0.01 -0.14,0.01 -0.49,0 -0.919,-0.36 -0.99,-0.86 m 58.441,-0.25 c -0.55,-0.06 -0.95,-0.551 -0.89,-1.1 0.06,-0.55 0.55,-0.951 1.1,-0.89 0.55,0.05 0.95,0.55 0.89,1.09 -0.05,0.519 -0.49,0.9 -0.99,0.9 l -0.11,0 z M 0.005,31.16 c -0.02,-0.56 0.41,-1.02 0.96,-1.04 0.55,-0.02 1.02,0.41 1.04,0.96 0.02,0.55 -0.41,1.02 -0.96,1.04 l -0.04,0 c -0.529,0 -0.98,-0.431 -1,-0.96 m 57.98,-1.16 0,0 c 0,-0.55 0.45,-1 1,-1 0.55,0 1,0.45 1,1 0,0.55 -0.45,1 -1,1 -0.549,0 -1,-0.45 -1,-1" /><g
     id="g15" /><g
     id="g17" /><g
     id="g19" /><g
     id="g21" /><g
     id="g23" /><g
     id="g25" /><g
     id="g27" /><g
     id="g29" /><g
     id="g31" /><g
     id="g33" /><g
     id="g35" /><g
     id="g37" /><g
     id="g39" /><g
     id="g41" /><g
     id="g43" /></svg>