<?xml version="1.0" encoding="UTF-8" standalone="no"?>
<svg
   xmlns:dc="http://purl.org/dc/elements/1.1/"
   xmlns:cc="http://creativecommons.org/ns#"
   xmlns:rdf="http://www.w3.org/1999/02/22-rdf-syntax-ns#"
   xmlns:svg="http://www.w3.org/2000/svg"
   xmlns="http://www.w3.org/2000/svg"
   xml:space="preserve"
   style="enable-background:new 0 0 58 58;"
   viewBox="0 0 58 58"
   y="0px"
   x="0px"
   id="Capa_1"
   version="1.1"><metadata
     id="metadata125"><rdf:RDF><cc:Work
         rdf:about=""><dc:format>image/svg+xml</dc:format><dc:type
           rdf:resource="http://purl.org/dc/dcmitype/StillImage" /><dc:title></dc:title></cc:Work></rdf:RDF></metadata><defs
     id="defs123" /><g
     style="fill:#607d8f;fill-opacity:0.94117647"
     id="g5"><path
       style="fill:#607d8f;fill-opacity:0.94117647"
       d="m 51,20 -1,0 c -3.866,0 -7,-3.134 -7,-7 0,3.866 -3.134,7 -7,7 -3.866,0 -7,-3.134 -7,-7 0,3.866 -3.134,7 -7,7 -3.866,0 -7,-3.134 -7,-7 0,3.866 -3.134,7 -7,7 L 7,20 C 3.134,20 0,16.866 0,13 l 0,45 58,0 0,-45 c 0,3.866 -3.134,7 -7,7 z"
       id="path7" /></g><g
     style="fill:#607d8f;fill-opacity:0.94117647;stroke:#ffffff;stroke-opacity:1;stroke-width:0.5;stroke-miterlimit:4;stroke-dasharray:none"
     id="g9"><rect
       x="4"
       y="25"
       style="fill:#607d8f;fill-opacity:0.94117647;stroke:#ffffff;stroke-opacity:1;stroke-width:0.5;stroke-miterlimit:4;stroke-dasharray:none"
       width="31"
       height="26"
       id="rect11" /><path
       style="fill:#607d8f;fill-opacity:0.94117647;stroke:#ffffff;stroke-opacity:1;stroke-width:0.5;stroke-miterlimit:4;stroke-dasharray:none"
       d="M 36,52 3,52 3,24 36,24 36,52 Z M 5,50 34,50 34,26 5,26 5,50 Z"
       id="path13" /></g><path
     style="fill:#ffffff"
     d="m 9,34 c -0.256,0 -0.512,-0.098 -0.707,-0.293 -0.391,-0.391 -0.391,-1.023 0,-1.414 l 4,-4 c 0.391,-0.391 1.023,-0.391 1.414,0 0.391,0.391 0.391,1.023 0,1.414 l -4,4 C 9.512,33.902 9.256,34 9,34 Z"
     id="path15" /><path
     style="fill:#ffffff"
     d="m 9,39 c -0.256,0 -0.512,-0.098 -0.707,-0.293 -0.391,-0.391 -0.391,-1.023 0,-1.414 l 2,-2 c 0.391,-0.391 1.023,-0.391 1.414,0 0.391,0.391 0.391,1.023 0,1.414 l -2,2 C 9.512,38.902 9.256,39 9,39 Z"
     id="path17" /><path
     style="fill:#ffffff"
     d="M 13,35 C 12.74,35 12.479,34.89 12.29,34.71 12.1,34.52 12,34.26 12,34 c 0,-0.26 0.109,-0.521 0.29,-0.71 0.37,-0.37 1.05,-0.37 1.42,0 0.18,0.189 0.29,0.45 0.29,0.71 0,0.26 -0.11,0.52 -0.29,0.71 C 13.52,34.89 13.26,35 13,35 Z"
     id="path19" /><path
     style="fill:#ffffff"
     d="m 15,33 c -0.256,0 -0.512,-0.098 -0.707,-0.293 -0.391,-0.391 -0.391,-1.023 0,-1.414 l 3,-3 c 0.391,-0.391 1.023,-0.391 1.414,0 0.391,0.391 0.391,1.023 0,1.414 l -3,3 C 15.512,32.902 15.256,33 15,33 Z"
     id="path21" /><path
     style="fill:#ffffff"
     d="m 9,44 c -0.256,0 -0.512,-0.098 -0.707,-0.293 -0.391,-0.391 -0.391,-1.023 0,-1.414 l 9,-9 c 0.391,-0.391 1.023,-0.391 1.414,0 0.391,0.391 0.391,1.023 0,1.414 l -9,9 C 9.512,43.902 9.256,44 9,44 Z"
     id="path23" /><path
     style="fill:#ffffff"
     d="M 20,33 C 19.729,33 19.47,32.89 19.29,32.7 19.109,32.52 19,32.26 19,32 c 0,-0.26 0.109,-0.521 0.29,-0.71 0.37,-0.37 1.05,-0.37 1.42,0 0.18,0.189 0.29,0.45 0.29,0.71 0,0.26 -0.11,0.52 -0.29,0.71 C 20.52,32.89 20.26,33 20,33 Z"
     id="path25" /><path
     style="fill:#ffffff"
     d="M 8,55 7,55 C 6.447,55 6,54.553 6,54 6,53.447 6.447,53 7,53 l 1,0 c 0.553,0 1,0.447 1,1 0,0.553 -0.447,1 -1,1 z"
     id="path27" /><path
     style="fill:#ffffff"
     d="M 4,55 3,55 C 2.447,55 2,54.553 2,54 2,53.447 2.447,53 3,53 l 1,0 c 0.553,0 1,0.447 1,1 0,0.553 -0.447,1 -1,1 z"
     id="path29" /><path
     style="fill:#ffffff"
     d="m 11,58 -1,0 C 9.447,58 9,57.553 9,57 9,56.447 9.447,56 10,56 l 1,0 c 0.553,0 1,0.447 1,1 0,0.553 -0.447,1 -1,1 z"
     id="path31" /><path
     style="fill:#ffffff"
     d="M 3,58 2,58 C 1.447,58 1,57.553 1,57 1,56.447 1.447,56 2,56 l 1,0 c 0.553,0 1,0.447 1,1 0,0.553 -0.447,1 -1,1 z"
     id="path33" /><path
     style="fill:#ffffff"
     d="M 7,58 6,58 C 5.447,58 5,57.553 5,57 5,56.447 5.447,56 6,56 l 1,0 c 0.553,0 1,0.447 1,1 0,0.553 -0.447,1 -1,1 z"
     id="path35" /><path
     style="fill:#ffffff"
     d="m 16,55 -1,0 c -0.553,0 -1,-0.447 -1,-1 0,-0.553 0.447,-1 1,-1 l 1,0 c 0.553,0 1,0.447 1,1 0,0.553 -0.447,1 -1,1 z"
     id="path37" /><path
     style="fill:#ffffff"
     d="m 12,55 -1,0 c -0.553,0 -1,-0.447 -1,-1 0,-0.553 0.447,-1 1,-1 l 1,0 c 0.553,0 1,0.447 1,1 0,0.553 -0.447,1 -1,1 z"
     id="path39" /><path
     style="fill:#ffffff"
     d="m 15,58 -1,0 c -0.553,0 -1,-0.447 -1,-1 0,-0.553 0.447,-1 1,-1 l 1,0 c 0.553,0 1,0.447 1,1 0,0.553 -0.447,1 -1,1 z"
     id="path41" /><path
     style="fill:#ffffff"
     d="m 24,55 -1,0 c -0.553,0 -1,-0.447 -1,-1 0,-0.553 0.447,-1 1,-1 l 1,0 c 0.553,0 1,0.447 1,1 0,0.553 -0.447,1 -1,1 z"
     id="path43" /><path
     style="fill:#ffffff"
     d="m 20,55 -1,0 c -0.553,0 -1,-0.447 -1,-1 0,-0.553 0.447,-1 1,-1 l 1,0 c 0.553,0 1,0.447 1,1 0,0.553 -0.447,1 -1,1 z"
     id="path45" /><path
     style="fill:#ffffff"
     d="m 27,58 -1,0 c -0.553,0 -1,-0.447 -1,-1 0,-0.553 0.447,-1 1,-1 l 1,0 c 0.553,0 1,0.447 1,1 0,0.553 -0.447,1 -1,1 z"
     id="path47" /><path
     style="fill:#ffffff"
     d="m 19,58 -1,0 c -0.553,0 -1,-0.447 -1,-1 0,-0.553 0.447,-1 1,-1 l 1,0 c 0.553,0 1,0.447 1,1 0,0.553 -0.447,1 -1,1 z"
     id="path49" /><path
     style="fill:#ffffff"
     d="m 23,58 -1,0 c -0.553,0 -1,-0.447 -1,-1 0,-0.553 0.447,-1 1,-1 l 1,0 c 0.553,0 1,0.447 1,1 0,0.553 -0.447,1 -1,1 z"
     id="path51" /><path
     style="fill:#ffffff"
     d="m 32,55 -1,0 c -0.553,0 -1,-0.447 -1,-1 0,-0.553 0.447,-1 1,-1 l 1,0 c 0.553,0 1,0.447 1,1 0,0.553 -0.447,1 -1,1 z"
     id="path53" /><path
     style="fill:#ffffff"
     d="m 28,55 -1,0 c -0.553,0 -1,-0.447 -1,-1 0,-0.553 0.447,-1 1,-1 l 1,0 c 0.553,0 1,0.447 1,1 0,0.553 -0.447,1 -1,1 z"
     id="path55" /><path
     style="fill:#ffffff"
     d="m 31,58 -1,0 c -0.553,0 -1,-0.447 -1,-1 0,-0.553 0.447,-1 1,-1 l 1,0 c 0.553,0 1,0.447 1,1 0,0.553 -0.447,1 -1,1 z"
     id="path57" /><path
     style="fill:#ffffff"
     d="m 36,55 -1,0 c -0.553,0 -1,-0.447 -1,-1 0,-0.553 0.447,-1 1,-1 l 1,0 c 0.553,0 1,0.447 1,1 0,0.553 -0.447,1 -1,1 z"
     id="path59" /><path
     style="fill:#ffffff"
     d="m 35,58 -1,0 c -0.553,0 -1,-0.447 -1,-1 0,-0.553 0.447,-1 1,-1 l 1,0 c 0.553,0 1,0.447 1,1 0,0.553 -0.447,1 -1,1 z"
     id="path61" /><path
     style="fill:#607d8f;fill-opacity:0.94117647"
     d="M 17,0 14.024,0 14,0 14,0.001 C 7.502,0.012 1.839,4.372 0.104,10.637 -0.109,11.406 0.188,11 0.378,11 L 14,11 15,11 29,11 29,0 17,0 Z"
     id="path63" /><path
     style="fill:#607d8f;fill-opacity:0.94117647"
     d="m 45,11 12.645,0 c 0.178,0 0.401,0.172 0.257,-0.341 L 57.896,10.636 C 56.277,4.689 51.075,0.473 45,0.043 L 45,0 43.976,0 41,0 29,0 l 0,11 14,0 2,0 z"
     id="path65" /><path
     style="fill:#607d8f;fill-opacity:0.94117647"
     d="m 29,11 -14,0 0,0 C 16.158,4.63 21.706,0 28.18,0 L 29,0 29,11 Z"
     id="path67" /><path
     style="fill:#607d8f;fill-opacity:0.94117647"
     d="M 43,11 29,11 29,0 29.82,0 C 36.294,0 41.842,4.63 43,11 l 0,0 z"
     id="path69" /><path
     style="fill:#607d8f;fill-opacity:0.94117647;stroke:#ffffff;stroke-opacity:1;stroke-width:0.5;stroke-miterlimit:4;stroke-dasharray:none"
     d="M 8,20 7,20 C 3.134,20 0,16.866 0,13 L 0,11.16 C 0,11.072 0.072,11 0.16,11 l 14.84,0 0,2 c 0,3.866 -3.134,7 -7,7 z"
     id="path71" /><path
     style="fill:#607d8f;fill-opacity:0.94117647;stroke:#ffffff;stroke-opacity:1;stroke-width:0.5;stroke-miterlimit:4;stroke-dasharray:none"
     d="m 22,20 0,0 c -3.866,0 -7,-3.134 -7,-7 l 0,-2 14,0 0,2 c 0,3.866 -3.134,7 -7,7 z"
     id="path73" /><path
     style="fill:#607d8f;fill-opacity:0.94117647;stroke:#ffffff;stroke-opacity:1;stroke-width:0.5;stroke-miterlimit:4;stroke-dasharray:none"
     d="m 36,20 0,0 c -3.866,0 -7,-3.134 -7,-7 l 0,-2 14,0 0,2 c 0,3.866 -3.134,7 -7,7 z"
     id="path75" /><path
     style="fill:#607d8f;fill-opacity:0.94117647;stroke:#ffffff;stroke-opacity:1;stroke-width:0.5;stroke-miterlimit:4;stroke-dasharray:none"
     d="m 51,20 -1,0 c -3.866,0 -7,-3.134 -7,-7 l 0,-2 14.84,0 C 57.928,11 58,11.072 58,11.16 L 58,13 c 0,3.866 -3.134,7 -7,7 z"
     id="path77" /><g
     style="fill:#607d8f;fill-opacity:0.94117647;stroke:#ffffff;stroke-opacity:1;stroke-width:0.5;stroke-miterlimit:4;stroke-dasharray:none"
     id="g79"><path
       style="fill:#607d8f;fill-opacity:0.94117647;stroke:#ffffff;stroke-opacity:1;stroke-width:0.5;stroke-miterlimit:4;stroke-dasharray:none"
       d="M 54,57 39,57 39,31.5 C 39,27.358 42.358,24 46.5,24 l 0,0 c 4.142,0 7.5,3.358 7.5,7.5 L 54,57 Z"
       id="path81" /><path
       style="fill:#607d8f;fill-opacity:0.94117647;stroke:#ffffff;stroke-opacity:1;stroke-width:0.5;stroke-miterlimit:4;stroke-dasharray:none"
       d="m 55,58 -17,0 0,-26.5 c 0,-4.687 3.813,-8.5 8.5,-8.5 4.687,0 8.5,3.813 8.5,8.5 L 55,58 Z M 40,56 53,56 53,31.5 C 53,27.916 50.084,25 46.5,25 42.916,25 40,27.916 40,31.5 L 40,56 Z"
       id="path83" /></g><g
     style="fill:#ffffff"
     id="g85"><line
       style="fill:#ffffff"
       x1="39"
       y1="43"
       x2="54"
       y2="43"
       id="line87" /><rect
       x="39"
       y="42"
       style="fill:#ffffff"
       width="15"
       height="2"
       id="rect89" /></g><g
     id="g91" /><g
     id="g93" /><g
     id="g95" /><g
     id="g97" /><g
     id="g99" /><g
     id="g101" /><g
     id="g103" /><g
     id="g105" /><g
     id="g107" /><g
     id="g109" /><g
     id="g111" /><g
     id="g113" /><g
     id="g115" /><g
     id="g117" /><g
     id="g119" /></svg>